<svg xmlns="http://www.w3.org/2000/svg" width="32" height="32" viewBox="0 0 32 32" fill="none">
  <path d="M2.24985 11.506L2.86029 13.0016H1.64291L2.24985 11.506Z" fill="#006FCF"/>
  <path d="M16.3081 12.4061C16.1855 12.4809 16.0406 12.4834 15.8669 12.4834H14.7834V11.6501H15.8816C16.0371 11.6501 16.1992 11.6571 16.3046 11.7178C16.4203 11.7725 16.4919 11.8888 16.4919 12.0495C16.4919 12.2134 16.4238 12.3454 16.3081 12.4061Z" fill="#006FCF"/>
  <path d="M23.4201 11.506L24.0373 13.0016H22.8063L23.4201 11.506Z" fill="#006FCF"/>
  <path fill-rule="evenodd" clip-rule="evenodd" d="M0 15.3573H1.52395L1.86754 14.524H2.63677L2.97947 15.3573H5.97773V14.7202L6.24536 15.36H7.80183L8.06946 14.7107V15.3573H15.5207L15.5172 13.9895H15.6614C15.7623 13.993 15.7918 14.0024 15.7918 14.17V15.3573H19.6456V15.0389C19.9565 15.2064 20.44 15.3573 21.0762 15.3573H22.6975L23.0444 14.524H23.8137L24.153 15.3573H27.2773V14.5658L27.7504 15.3573H30.2541V10.125H27.7763V10.7429L27.4294 10.125H24.8869V10.7429L24.5683 10.125H21.134C20.5592 10.125 20.0538 10.2057 19.6456 10.4305V10.125H17.2757V10.4305C17.016 10.1988 16.662 10.125 16.2684 10.125H7.61017L7.02922 11.4764L6.43263 10.125H3.70548V10.7429L3.40589 10.125H1.08008L0 12.6127V15.3573ZM13.2736 14.6204H10.2942V10.8689H13.2736V11.6501H11.1861V12.3263H13.2235V13.0953H11.1861V13.8445H13.2736V14.6204ZM8.71523 14.6204H9.62941V10.8689H8.14452L7.07232 13.4139L5.90514 10.8689H4.4495V14.4208L2.93265 10.8689H1.60756L0.0104628 14.6204H0.979122L1.3253 13.7837H3.18227L3.52496 14.6204H5.33893V11.6796L6.63554 14.6204H7.41862L8.71185 11.6822L8.71523 14.6204ZM17.4743 11.8792C17.4743 12.4774 17.0773 12.7864 16.8459 12.8792C17.0411 12.9539 17.2077 13.0858 17.2871 13.1951C17.413 13.3817 17.4347 13.5484 17.4347 13.8835V14.6204H16.5352L16.5318 14.1473C16.5318 14.1244 16.532 14.1005 16.5322 14.0759C16.5343 13.8573 16.5368 13.5786 16.391 13.4165C16.2607 13.2845 16.062 13.2559 15.741 13.2559H14.7835V14.6204H13.8918V10.8689H15.9431C16.3989 10.8689 16.7347 10.881 17.023 11.0486C17.3052 11.2162 17.4743 11.4608 17.4743 11.8792ZM18.9016 14.6204H17.9916V10.8689H18.9016V14.6204ZM29.4591 14.6204H28.1952L26.5047 11.8047V14.6204H24.6884L24.3413 13.7837H22.4886L22.1519 14.6204H21.1083C20.6747 14.6204 20.1259 14.524 19.815 14.2055C19.5016 13.887 19.3385 13.4555 19.3385 12.7733C19.3385 12.2169 19.436 11.7083 19.8193 11.3063C20.1076 11.0069 20.5592 10.8689 21.1738 10.8689H22.0372V11.6727H21.1919C20.8664 11.6727 20.6826 11.7214 20.5056 11.895C20.3535 12.0529 20.2492 12.3516 20.2492 12.7448C20.2492 13.1467 20.3287 13.4365 20.4944 13.6258C20.6318 13.7743 20.8813 13.8193 21.116 13.8193H21.5166L22.7736 10.869H24.1099L25.6199 14.4174V10.869H26.9778L28.5456 13.4818V10.869H29.4591V14.6204Z" fill="#006FCF"/>
  <path d="M19.6854 18.9449C19.8589 18.9449 20.0065 18.9388 20.1257 18.8676C20.2413 18.7974 20.3104 18.668 20.3104 18.5075C20.3104 18.3469 20.2413 18.2307 20.1257 18.1699C20.0178 18.1055 19.8589 18.1021 19.7001 18.1021H18.6019V18.9449H19.6854Z" fill="#006FCF"/>
  <path d="M12.3635 19.2087L13.7328 20.7372V17.7287L12.3635 19.2087Z" fill="#006FCF"/>
  <path d="M8.00383 20.2965H10.1966L11.2154 19.1956L10.2398 18.102H8.00383V18.7842H9.96186V19.5499H8.00383V20.2965Z" fill="#006FCF"/>
  <path d="M14.6211 19.0577H15.7737C16.1164 19.0577 16.3296 18.8868 16.3296 18.5622C16.3296 18.2341 16.106 18.1021 15.7841 18.1021H14.6211V19.0577Z" fill="#006FCF"/>
  <path fill-rule="evenodd" clip-rule="evenodd" d="M31.7311 20.5985C31.5144 20.917 31.0923 21.0785 30.5208 21.0785H28.7984V20.2738H30.5138C30.684 20.2738 30.8031 20.2513 30.8747 20.1809C30.9369 20.1229 30.9802 20.0386 30.9802 19.9362C30.9802 19.8268 30.9369 19.7401 30.8713 19.688C30.8065 19.6307 30.7123 19.6047 30.557 19.6047C30.5023 19.6028 30.4466 19.6013 30.3904 19.5998C29.5874 19.5779 28.6749 19.5531 28.6749 18.4433C28.6749 17.899 29.0186 17.3261 29.9545 17.3261H31.731V16.5795H30.0804C29.5823 16.5795 29.2205 16.6995 28.9642 16.8859V16.5795H26.5228C26.1324 16.5795 25.6741 16.6768 25.4574 16.8859V16.5795H21.0977V16.8859C20.7507 16.6343 20.1653 16.5795 19.895 16.5795H17.0193V16.8859C16.7448 16.6187 16.1344 16.5795 15.7623 16.5795H12.5439L11.8075 17.3809L11.1177 16.5795H6.31007V21.8154H11.0272L11.7861 21.0014L12.501 21.8154L15.4086 21.818V20.5863H15.6945C16.0803 20.5923 16.5353 20.5767 16.9367 20.4022V21.8153H19.335V20.4507H19.4507C19.5984 20.4507 19.6129 20.4568 19.6129 20.6051V21.8152H26.8985C27.361 21.8152 27.8445 21.6962 28.1123 21.4802V21.8152H30.4232C30.9041 21.8152 31.3738 21.7474 31.7311 21.5739V20.5985ZM28.1735 19.0994C28.3471 19.2801 28.4402 19.5082 28.4402 19.8944C28.4402 20.7016 27.9386 21.0784 27.0392 21.0784H25.3021V20.2738H27.0322C27.2013 20.2738 27.3213 20.2513 27.3965 20.1809C27.4578 20.1228 27.5018 20.0385 27.5018 19.9361C27.5018 19.8268 27.4542 19.74 27.393 19.688C27.3248 19.6307 27.2307 19.6047 27.0754 19.6047C27.0208 19.6028 26.9653 19.6013 26.9092 19.5998C26.109 19.5779 25.1968 19.553 25.1968 18.4433C25.1968 17.899 25.5369 17.3261 26.472 17.3261H28.2599V18.1247H26.6239C26.4617 18.1247 26.3563 18.1309 26.2666 18.1925C26.1689 18.2533 26.1326 18.3435 26.1326 18.4625C26.1326 18.6041 26.2156 18.7004 26.3278 18.742C26.4219 18.7749 26.5229 18.7846 26.6749 18.7846L27.155 18.7976C27.6391 18.8095 27.9715 18.8936 28.1735 19.0994ZM20.6644 19.3346C20.8629 19.4083 21.0252 19.5403 21.1013 19.6496C21.2272 19.8328 21.2454 20.0038 21.249 20.3346V21.0785H20.3536V20.609C20.3536 20.5864 20.3539 20.5628 20.3541 20.5384C20.3561 20.3181 20.3587 20.0315 20.2095 19.8745C20.0792 19.74 19.8805 19.7079 19.5552 19.7079H18.602V21.0785H17.7058V17.326H19.7649C20.2165 17.326 20.5453 17.346 20.838 17.5031C21.1195 17.6741 21.2965 17.9083 21.2965 18.3364C21.2964 18.9353 20.8991 19.2409 20.6644 19.3346ZM21.7911 17.326H24.7677V18.102H22.6792V18.7842H24.7167V19.5498H22.6792V20.2964L24.7677 20.2998V21.0784H21.7911V17.326ZM17.2871 18.5622C17.2871 19.6046 16.5136 19.8198 15.734 19.8198H14.6211V21.0784H12.8876L11.7894 19.8362L10.6481 21.0784H7.11542V17.326H10.7025L11.7998 18.556L12.9342 17.326H15.7841C16.4918 17.326 17.2871 17.523 17.2871 18.5622Z" fill="#006FCF"/>
  <path d="M30.1056 18.1245H31.7311V19.1922C31.7296 19.1904 31.7282 19.1885 31.7267 19.1866L31.7221 19.1805L31.7197 19.1774L31.7196 19.1772C31.6991 19.1502 31.6788 19.1235 31.6484 19.0993C31.4498 18.8937 31.1243 18.8094 30.6365 18.7973L30.1531 18.7843C30.0046 18.7843 29.9035 18.7747 29.8094 18.7418C29.6938 18.7001 29.6144 18.6038 29.6144 18.4623C29.6144 18.3432 29.6506 18.2531 29.7447 18.1923C29.8355 18.1306 29.9433 18.1245 30.1056 18.1245Z" fill="#006FCF"/>
</svg>