<svg xmlns="http://www.w3.org/2000/svg" width="32" height="32" viewBox="0 0 32 32" fill="none">
  <path d="M23.6459 22.793H23.5178V22.9691C23.7685 22.9619 24.0119 22.9557 24.2554 22.9557C24.3791 22.9557 24.501 22.9591 24.6211 22.9625C24.7376 22.9658 24.8523 22.9691 24.9653 22.9691V22.793H24.8507C24.6615 22.793 24.5125 22.793 24.5125 22.5692V17.8943C24.5125 17.8399 24.4991 17.7988 24.4577 17.7988C24.4429 17.7988 24.4088 17.818 24.3619 17.8443L24.3618 17.8444C24.3458 17.8534 24.3284 17.8632 24.3097 17.8734C24.1673 17.9552 23.8828 18.0767 23.6123 18.1645V18.273C23.6212 18.2755 23.6299 18.278 23.6384 18.2805C23.8766 18.349 23.971 18.3761 23.971 18.8012V22.5692C23.971 22.793 23.836 22.793 23.6459 22.793Z" fill="#1A1919"/>
  <path d="M23.2735 19.4703H23.1047C22.9759 18.6793 22.4143 18.3609 21.6569 18.3609C20.8778 18.3609 19.7482 18.8816 19.7482 20.5055C19.7482 21.8729 20.723 22.8542 21.7648 22.8542C22.4341 22.8542 22.9901 22.3938 23.1252 21.6829L23.2809 21.7233L23.1252 22.7116C22.841 22.8878 22.0761 23.0708 21.629 23.0708C20.0464 23.0708 19.045 22.0488 19.045 20.5264C19.045 19.1388 20.2833 18.1439 21.6095 18.1439C22.1574 18.1439 22.6851 18.3203 23.2062 18.5032L23.2735 19.4703Z" fill="#1A1919"/>
  <path d="M5.06458 22.793H4.93636V22.969C5.18653 22.9619 5.43029 22.9556 5.67391 22.9556C5.79693 22.9556 5.91852 22.9591 6.03848 22.9625C6.15525 22.9658 6.27051 22.969 6.384 22.969V22.793H6.26944C6.07976 22.793 5.93063 22.793 5.93063 22.5692V19.9716C5.93063 19.917 5.91669 19.8763 5.88352 19.8763C5.8491 19.8763 5.8091 19.8835 5.76144 19.9107C5.73468 19.931 5.35545 20.0587 5.03741 20.1543V20.2623C5.04804 20.268 5.05841 20.2736 5.06851 20.279C5.29655 20.4012 5.38946 20.4509 5.38946 20.7356V22.5692C5.38946 22.793 5.25399 22.793 5.06458 22.793Z" fill="#1A1919"/>
  <path d="M5.32868 18.4963C5.32868 18.6722 5.48394 18.8346 5.66024 18.8346C5.84268 18.8346 5.99194 18.6793 5.99194 18.4963C5.99194 18.3135 5.83585 18.1709 5.66024 18.1709C5.49133 18.1709 5.32868 18.3269 5.32868 18.4963Z" fill="#1A1919"/>
  <path fill-rule="evenodd" clip-rule="evenodd" d="M0.0844577 18.4227C0.368634 18.4258 0.64557 18.4288 0.64557 18.9967V22.2787C0.626197 22.7323 0.434678 22.7516 0.0407029 22.7913L0.0235596 22.793V22.969C0.327666 22.9619 0.625918 22.9557 0.930164 22.9557C1.08589 22.9557 1.24175 22.9589 1.40077 22.9622C1.56638 22.9656 1.73543 22.969 1.91133 22.969C4.30683 22.969 4.6993 21.2846 4.6993 20.6141C4.6993 19.4159 3.74489 18.2459 1.99272 18.2459C1.7069 18.2459 1.45862 18.2501 1.24534 18.2537C1.08476 18.2564 0.944014 18.2587 0.822013 18.2587C0.557627 18.2587 0.287248 18.2587 0.0235596 18.2459V18.4218C0.0438304 18.4222 0.0641625 18.4225 0.0844577 18.4227ZM2.01265 22.7521C1.68122 22.7521 1.30869 22.6914 1.30869 22.1702V18.4897C1.34155 18.4877 1.37484 18.4849 1.41137 18.4817C1.51053 18.4732 1.63357 18.4627 1.83676 18.4627C3.14252 18.4627 3.95435 19.3759 3.95435 20.6413C3.95435 21.6494 3.47464 22.7521 2.01265 22.7521Z" fill="#1A1919"/>
  <path d="M7.02706 20.7763C7.02706 20.5264 6.95235 20.4588 6.63487 20.33V20.2015L6.67721 20.1878C6.95243 20.0982 7.21836 20.0116 7.52767 19.8763C7.54816 19.8763 7.56781 19.8898 7.56781 19.9438V20.3838C7.95415 20.1069 8.28571 19.8763 8.73978 19.8763C9.31412 19.8763 9.51705 20.2959 9.51705 20.8237V22.5692C9.51705 22.793 9.66631 22.793 9.85558 22.793H9.97767V22.969C9.85958 22.969 9.74177 22.9657 9.62325 22.9624C9.50331 22.959 9.38258 22.9556 9.26019 22.9556C9.01643 22.9556 8.77267 22.9619 8.52905 22.969V22.793H8.65114C8.84068 22.793 8.97545 22.793 8.97545 22.5692V20.8174C8.97545 20.4312 8.73978 20.242 8.35358 20.242C8.13686 20.242 7.79178 20.4176 7.56781 20.5671V22.5692C7.56781 22.793 7.71736 22.793 7.9069 22.793H8.02843V22.969C7.91103 22.969 7.79357 22.9657 7.6752 22.9624L7.67513 22.9624H7.67506C7.55487 22.959 7.43374 22.9556 7.31081 22.9556C7.06775 22.9556 6.82385 22.9619 6.58051 22.969V22.793H6.7026C6.89187 22.793 7.02706 22.793 7.02706 22.5692V20.7763Z" fill="#1A1919"/>
  <path fill-rule="evenodd" clip-rule="evenodd" d="M10.492 21.4941C10.4782 21.2638 10.4782 21.1625 10.492 21.1016H12.3933L12.4544 21.0608C12.4607 21.0201 12.4607 20.9799 12.4607 20.9388C12.4544 20.2213 11.8653 19.8763 11.3166 19.8763C10.8435 19.8763 9.95052 20.269 9.95052 21.5954C9.95052 22.0281 10.167 23.0708 11.2432 23.0708C11.7976 23.0708 12.1831 22.7187 12.4944 22.306L12.4 22.2113C12.1501 22.4612 11.8589 22.6642 11.4862 22.6642C10.9455 22.6642 10.5318 22.1367 10.492 21.4941ZM11.8787 20.7153C11.8787 20.7968 11.8589 20.8849 11.6901 20.8849H10.5122C10.5933 20.3972 10.8776 20.0933 11.29 20.0933C11.6691 20.0933 11.8787 20.3708 11.8787 20.7153Z" fill="#1A1919"/>
  <path d="M12.6167 22.793H12.7995C12.9882 22.793 13.1237 22.793 13.1237 22.5692V20.6682C13.1237 20.5027 12.9675 20.4423 12.8518 20.3975C12.8211 20.3856 12.7932 20.3748 12.7719 20.3635V20.2623C13.0384 20.1491 13.2399 20.0457 13.3787 19.9744C13.4972 19.9136 13.57 19.8763 13.5985 19.8763C13.6381 19.8763 13.6585 19.8966 13.6585 19.9646V20.5737H13.6727C13.8413 20.3098 14.126 19.8763 14.5386 19.8763C14.7076 19.8763 14.9239 19.9912 14.9239 20.235C14.9239 20.4176 14.796 20.5808 14.6066 20.5808C14.5045 20.5808 14.4519 20.5424 14.3978 20.5028C14.3404 20.4608 14.2811 20.4176 14.1591 20.4176C14.0442 20.4176 13.6653 20.5737 13.6653 20.9799V22.5692C13.6653 22.793 13.8005 22.793 13.99 22.793H14.3686V22.969C14.3234 22.9682 14.2795 22.9673 14.2368 22.9665C13.9276 22.9605 13.6779 22.9556 13.422 22.9556C13.1445 22.9556 12.8601 22.9619 12.6167 22.969V22.793Z" fill="#1A1919"/>
  <path d="M16.0747 22.8542C15.5798 22.8542 15.3097 22.4747 15.2215 22.0281L15.0997 22.0623L15.1745 22.8405C15.4106 22.9758 15.7292 23.0707 15.9996 23.0707C16.8051 23.0707 17.1633 22.5965 17.1633 22.1502C17.1633 21.5801 16.7114 21.3862 16.2925 21.2065C15.9309 21.0513 15.5939 20.9067 15.5939 20.5396C15.5939 20.2486 15.8507 20.0932 16.1214 20.0932C16.555 20.0932 16.7915 20.3367 16.8591 20.7628H17.0146L16.9671 20.0732C16.7034 19.9377 16.4125 19.8764 16.1964 19.8764C15.452 19.8764 15.1473 20.3635 15.1473 20.7428C15.1473 21.3296 15.5753 21.5256 15.9701 21.7065C16.3082 21.8613 16.622 22.0051 16.622 22.3736C16.622 22.6103 16.4733 22.8542 16.0747 22.8542Z" fill="#1A1919"/>
  <path d="M27.8624 22.5965C27.8624 22.7187 27.9364 22.7252 28.0511 22.7252C28.0911 22.7252 28.1357 22.7236 28.1813 22.722C28.2288 22.7204 28.2772 22.7187 28.3224 22.7187V22.8612C28.0313 22.8879 27.4762 23.0301 27.3474 23.0708L27.3137 23.0502V22.502C26.9081 22.8334 26.5965 23.0708 26.1154 23.0708C25.7501 23.0708 25.3714 22.8334 25.3714 22.2658V20.533C25.3714 20.3568 25.3445 20.1876 24.9661 20.1543V20.0254C25.1012 20.0217 25.3273 20.0076 25.517 19.9958C25.6698 19.9863 25.799 19.9783 25.8383 19.9783C25.9134 19.9783 25.9134 20.0254 25.9134 20.1745V21.9202C25.9134 22.1234 25.9134 22.7047 26.502 22.7047C26.7317 22.7047 27.0362 22.5292 27.3202 22.2927V20.472C27.3202 20.3491 27.0522 20.2765 26.8208 20.2137C26.7976 20.2074 26.7747 20.2012 26.7524 20.195V20.0734C27.1449 20.0467 27.442 20.0149 27.6216 19.9957C27.7205 19.9851 27.7838 19.9783 27.8077 19.9783C27.8624 19.9783 27.8624 20.0254 27.8624 20.1001V22.5965Z" fill="#1A1919"/>
  <path fill-rule="evenodd" clip-rule="evenodd" d="M30.2168 19.8763C29.8447 19.8763 29.4791 20.134 29.2086 20.3635V17.8943C29.2086 17.8401 29.1949 17.7988 29.1546 17.7988C29.1398 17.7988 29.1075 17.8168 29.0627 17.8419C29.0454 17.8515 29.0262 17.8623 29.0054 17.8734C28.8634 17.9552 28.5795 18.0767 28.3085 18.1645V18.273C28.3175 18.2756 28.3263 18.2781 28.3349 18.2806C28.5726 18.349 28.6675 18.3763 28.6675 18.8012V21.7104C28.6675 22.1234 28.6334 22.5158 28.5729 22.915L28.7148 22.9891L28.9171 22.8334C28.9435 22.8446 28.9719 22.8577 29.0027 22.872C29.1778 22.953 29.4323 23.0708 29.8576 23.0708C30.8257 23.0708 31.4756 22.184 31.4756 21.2979C31.4756 20.5605 31.0019 19.8763 30.2168 19.8763ZM29.9056 22.8946C29.4523 22.8946 29.2086 22.4612 29.2086 22.2042V20.5604C29.3911 20.4046 29.6005 20.242 29.8519 20.242C30.3796 20.242 30.9338 20.8509 30.9338 21.5815C30.9338 22.184 30.6294 22.8946 29.9056 22.8946Z" fill="#1A1919"/>
  <path d="M6.24574 27.0299C6.17879 27.0299 6.0879 27.0267 5.98999 27.0234C5.87573 27.0195 5.7519 27.0152 5.64547 27.0152C5.52333 27.0152 5.38998 27.0197 5.27075 27.0237C5.17435 27.0269 5.08718 27.0299 5.02263 27.0299H5.00688V26.8876H5.09287C5.29579 26.8828 5.37733 26.8802 5.38192 26.5946V24.6438H4.79448C4.53682 24.649 4.52791 24.6899 4.47707 24.9238C4.4741 24.9375 4.47098 24.9518 4.46765 24.9669L4.46501 24.9794H4.32313L4.32508 24.9603C4.32949 24.9303 4.3342 24.9001 4.33894 24.8699C4.35039 24.7968 4.36195 24.7229 4.36954 24.6473C4.38487 24.5452 4.39184 24.443 4.39184 24.3375V24.3212H4.50877L4.51156 24.3328C4.53623 24.4251 4.60376 24.4263 4.69689 24.4279L4.69845 24.4279H6.61661C6.71918 24.4263 6.79389 24.4249 6.80016 24.3286L6.80141 24.3112L6.81814 24.3145L6.92225 24.3309L6.9196 24.3473C6.90496 24.4461 6.89061 24.5452 6.87946 24.6438C6.87263 24.7425 6.87263 24.8415 6.87263 24.941V24.9521L6.8619 24.9564L6.73159 25.0041L6.73075 24.9828L6.73069 24.9819C6.72052 24.8434 6.70586 24.6438 6.47361 24.6438H5.88589V26.5869C5.88951 26.8646 5.99961 26.8841 6.17522 26.8876H6.26135V27.0299H6.24574Z" fill="#1A1919"/>
  <path d="M1.13907 27.0299C1.05065 27.0299 0.951823 27.0262 0.852288 27.0226C0.751323 27.0189 0.649632 27.0151 0.557342 27.0151C0.462274 27.0151 0.357083 27.0192 0.257688 27.0231C0.168674 27.0266 0.0843093 27.0299 0.0160276 27.0299H0V26.8876H0.0674553C0.201111 26.8844 0.322642 26.8737 0.323757 26.6937V24.7648C0.322642 24.5846 0.201111 24.5729 0.0674553 24.5706H0V24.428H0.0160276C0.084323 24.428 0.169642 24.4312 0.259645 24.4346C0.360105 24.4383 0.466409 24.4423 0.561384 24.4423C0.654112 24.4423 0.756415 24.4387 0.857422 24.435C0.955898 24.4315 1.05314 24.428 1.13907 24.428H1.15552V24.5706H1.08779C0.95399 24.5729 0.831762 24.5846 0.831066 24.7648V26.6937C0.831762 26.8737 0.95399 26.8844 1.08779 26.8876H1.15552V27.0299H1.13907Z" fill="#1A1919"/>
  <path d="M3.88148 27.0849L3.72984 27.0798L1.8613 24.9972V26.473C1.86576 26.7931 1.9144 26.8841 2.19161 26.8876H2.2705V27.0299H2.25419C2.17426 27.0299 2.09454 27.0262 2.0151 27.0225H2.01504C1.93618 27.0188 1.85759 27.0151 1.77936 27.0151C1.69719 27.0151 1.61395 27.0188 1.53047 27.0225H1.53027C1.4463 27.0262 1.36208 27.0299 1.27846 27.0299H1.26229V26.8876H1.3303C1.57364 26.8862 1.64319 26.7298 1.64584 26.4366V24.8859C1.64514 24.6899 1.48431 24.5706 1.32682 24.5706H1.26229V24.428H1.27846C1.34917 24.428 1.42073 24.4316 1.49196 24.4352C1.5625 24.4388 1.63272 24.4423 1.70145 24.4423C1.74634 24.4423 1.79065 24.4399 1.83584 24.4375C1.90119 24.434 1.96837 24.4303 2.04179 24.4337L3.65988 26.2551V24.9009C3.65807 24.6085 3.46267 24.5729 3.35549 24.5706H3.25807V24.428H3.27438C3.36159 24.428 3.44769 24.4316 3.53353 24.4352C3.6189 24.4388 3.70402 24.4423 3.78977 24.4423C3.86439 24.4423 3.93928 24.4388 4.01447 24.4352C4.09025 24.4316 4.16633 24.428 4.24273 24.428H4.25889V24.5706H4.18795C4.0359 24.5745 3.87995 24.5878 3.87549 25.0221V26.6973C3.87549 26.8263 3.87953 26.9548 3.89723 27.0665L3.90057 27.0849H3.88148Z" fill="#1A1919"/>
  <path d="M8.57561 27.0232C8.38649 27.0191 8.18009 27.0146 8.00112 27.0146C7.81646 27.0146 7.59897 27.0193 7.40615 27.0235C7.25261 27.0269 7.11472 27.0299 7.02149 27.0299H7.00602V26.8876H7.07334C7.20657 26.8854 7.32783 26.8737 7.3295 26.6937V24.7648C7.32783 24.5849 7.20657 24.5729 7.07334 24.5706H7.00602V24.428H7.02149C7.12509 24.428 7.26222 24.431 7.41016 24.4343C7.58344 24.4382 7.77154 24.4423 7.93799 24.4423C8.10091 24.4423 8.28398 24.4384 8.45741 24.4346C8.6135 24.4312 8.76179 24.428 8.88055 24.428H8.89686L8.8963 24.445C8.89393 24.5 8.8924 24.5655 8.8924 24.6348C8.8924 24.762 8.8963 24.9016 8.90355 25.0064L8.90424 25.0195L8.89184 25.0232L8.76237 25.0571L8.76181 25.0381C8.74007 24.7993 8.70801 24.6255 8.32892 24.6218H7.83263L7.83235 25.5544H8.25492C8.46718 25.5521 8.50509 25.4437 8.53017 25.2451L8.53101 25.2303H8.67261L8.67233 25.2472C8.66522 25.391 8.6609 25.5342 8.6609 25.6776C8.6609 25.8168 8.66522 25.9566 8.67233 26.0965L8.67261 26.1099L8.65923 26.113L8.53101 26.1385L8.53017 26.1212C8.52898 26.1107 8.52784 26.1004 8.52672 26.0903C8.50398 25.8851 8.49156 25.7731 8.25868 25.7705H7.83263V26.6125C7.83318 26.8341 8.02226 26.835 8.25893 26.8363L8.26607 26.8363C8.7094 26.8337 8.88696 26.8119 8.9979 26.399L9.00166 26.384L9.01713 26.3866L9.13518 26.4172L9.13184 26.4324C9.08403 26.6272 9.04013 26.8219 9.00682 27.0168L9.00403 27.0299H8.99135C8.88312 27.0299 8.73553 27.0267 8.57561 27.0232Z" fill="#1A1919"/>
  <path fill-rule="evenodd" clip-rule="evenodd" d="M11.8004 27.0299C11.7383 27.0299 11.6779 27.0262 11.6178 27.0224C11.5582 27.0188 11.499 27.0151 11.4387 27.0151C11.3935 27.0151 11.3473 27.0175 11.3 27.02C11.2299 27.0236 11.1571 27.0274 11.0805 27.0238C10.798 26.653 10.5559 26.2578 10.3182 25.8374H10.1006V26.6086C10.1046 26.8813 10.2121 26.8837 10.3776 26.8874L10.3859 26.8876H10.4685V27.0299H10.4522C10.3468 27.0299 10.2405 27.0262 10.1344 27.0225H10.1342C10.0286 27.0188 9.92325 27.0151 9.81921 27.0151C9.73237 27.0151 9.64625 27.0187 9.55904 27.0224C9.46962 27.0261 9.37906 27.0299 9.28542 27.0299H9.26939V26.8876H9.3519C9.4843 26.8866 9.59622 26.8289 9.59678 26.7052V24.834C9.59404 24.578 9.47112 24.5742 9.3586 24.5708L9.3519 24.5706H9.26939V24.428H9.28542C9.33564 24.428 9.40508 24.4305 9.48542 24.4335C9.5957 24.4375 9.72653 24.4423 9.85642 24.4423C9.96943 24.4423 10.071 24.4385 10.1697 24.4349C10.263 24.4314 10.3537 24.428 10.449 24.428C10.9133 24.429 11.3404 24.5568 11.3416 25.0917C11.3416 25.4239 11.1219 25.6316 10.838 25.7474L11.4563 26.6737C11.5592 26.8264 11.6234 26.8646 11.8025 26.8876L11.8158 26.8897V27.0299H11.8004ZM10.2648 25.6725C10.6292 25.6689 10.8129 25.5425 10.8165 25.1148C10.8143 24.7931 10.6146 24.5935 10.2939 24.5921C10.2173 24.5921 10.1718 24.5976 10.1335 24.6022C10.1221 24.6036 10.1113 24.6049 10.1006 24.6059V25.6725H10.2648Z" fill="#1A1919"/>
  <path d="M14.5132 27.0849L14.362 27.0798L12.4932 24.9974V26.4728C12.4975 26.7935 12.546 26.8841 12.8236 26.8876H12.9017V27.0299H12.8856C12.8059 27.0299 12.7264 27.026 12.6471 27.0222C12.5682 27.0184 12.4894 27.0146 12.4107 27.0146C12.3287 27.0146 12.2453 27.0184 12.1616 27.0222C12.0776 27.026 11.9934 27.0299 11.9103 27.0299H11.8939V26.8876H11.9616C12.2048 26.8866 12.2745 26.7298 12.2769 26.4357V24.8854C12.2764 24.6892 12.1159 24.5706 11.9584 24.5706H11.8939V24.428H11.9103C11.9808 24.428 12.0522 24.4316 12.1234 24.4352C12.1942 24.4388 12.2647 24.4423 12.334 24.4423C12.3793 24.4423 12.4243 24.4398 12.4704 24.4372C12.5344 24.4337 12.6005 24.43 12.6723 24.4327L14.2909 26.2551V24.9009C14.2899 24.6085 14.0938 24.5722 13.9868 24.5706H13.8897V24.428H13.9057C13.9929 24.428 14.079 24.4316 14.1649 24.4352C14.2504 24.4388 14.3357 24.4423 14.4215 24.4423C14.4963 24.4423 14.5712 24.4388 14.6464 24.4352C14.722 24.4316 14.7979 24.428 14.874 24.428H14.8903V24.5706H14.8193C14.6673 24.5742 14.5108 24.5878 14.5072 25.0221V26.6973C14.5072 26.8263 14.5104 26.9539 14.5292 27.0668L14.531 27.0849H14.5132Z" fill="#1A1919"/>
  <path fill-rule="evenodd" clip-rule="evenodd" d="M17.3724 27.0274C17.2253 27.021 17.077 27.0145 16.9214 27.0145C16.7655 27.0145 16.6072 27.0207 16.4459 27.0269C16.4204 27.0279 16.3949 27.0289 16.3693 27.0299L16.3523 27.0307V26.8869H16.409C16.4943 26.8869 16.6209 26.8678 16.6212 26.7968C16.622 26.7549 16.589 26.654 16.5484 26.5369L16.4082 26.1203H15.5961L15.4815 26.4924C15.4687 26.5358 15.455 26.5757 15.4425 26.612C15.419 26.6804 15.4 26.7356 15.4004 26.7748C15.4017 26.8647 15.5391 26.8869 15.6613 26.8869H15.7179V27.0307L15.7012 27.0299C15.6857 27.0291 15.6702 27.0284 15.6547 27.0276L15.654 27.0276C15.522 27.0211 15.3881 27.0145 15.2565 27.0145C15.14 27.0145 15.0223 27.021 14.9052 27.0274C14.8902 27.0282 14.8751 27.0291 14.8601 27.0299L14.8429 27.0307V26.8869H14.8811C15.018 26.8866 15.1323 26.8084 15.1855 26.6589L15.7752 24.9689C15.7806 24.9532 15.7863 24.937 15.7922 24.9203L15.7923 24.92C15.8377 24.7908 15.8933 24.6325 15.9214 24.5022C16.0369 24.4631 16.1851 24.3888 16.2557 24.3443C16.2573 24.3438 16.2589 24.3432 16.2605 24.3426C16.2693 24.3394 16.2785 24.336 16.291 24.336C16.3001 24.3354 16.3198 24.3378 16.3318 24.357C16.3423 24.3873 16.354 24.4203 16.3651 24.45L17.043 26.3757C17.0477 26.3894 17.0523 26.4033 17.057 26.4172L17.0578 26.4196C17.0964 26.535 17.1359 26.6529 17.1786 26.7497C17.2213 26.8478 17.2889 26.8866 17.4072 26.8869H17.4444V27.0307L17.4281 27.0299L17.3724 27.0274ZM15.676 25.8823H16.3205L16.0001 24.8957L15.676 25.8823Z" fill="#1A1919"/>
  <path d="M19.0418 27.0299C18.9751 27.0299 18.8843 27.0267 18.7864 27.0234C18.6719 27.0195 18.5478 27.0152 18.4411 27.0152C18.3196 27.0152 18.1865 27.0197 18.0674 27.0237C17.9709 27.0269 17.8836 27.0299 17.8191 27.0299H17.8028V26.8876H17.889C18.0921 26.8828 18.1735 26.8802 18.1784 26.5946L18.1781 24.6438H17.591C17.3332 24.6483 17.3242 24.6898 17.2734 24.9235L17.2734 24.9238C17.2704 24.9375 17.2673 24.9519 17.2639 24.9669L17.2613 24.9794H17.1191L17.1214 24.9612C17.1253 24.9348 17.1294 24.9084 17.1335 24.882C17.1456 24.8048 17.1577 24.7272 17.1657 24.6482C17.1807 24.5452 17.1876 24.443 17.1876 24.3375V24.3212H17.3045L17.3076 24.3328C17.3332 24.4251 17.3997 24.4263 17.4931 24.4279L17.4946 24.4279H19.4136C19.5155 24.4263 19.5898 24.4249 19.5963 24.3289L19.5969 24.3112L19.614 24.3145L19.7185 24.3309L19.716 24.3473C19.7008 24.4461 19.6869 24.5452 19.6758 24.6438C19.6682 24.7425 19.6682 24.8416 19.6682 24.941V24.9521L19.6575 24.9564L19.5272 25.0041L19.5266 24.9828C19.517 24.8442 19.5024 24.6438 19.2696 24.6438H18.6818V26.5869C18.6855 26.8646 18.7958 26.8841 18.9712 26.8876H19.0571V27.0299H19.0418Z" fill="#1A1919"/>
  <path d="M20.9595 27.0299C20.8712 27.0299 20.7725 27.0261 20.6731 27.0223C20.5721 27.0184 20.4702 27.0146 20.3776 27.0146C20.2825 27.0146 20.1769 27.0188 20.0773 27.0229C19.9883 27.0265 19.904 27.0299 19.8362 27.0299H19.8204V26.8876H19.8879C20.0206 26.8854 20.1429 26.8737 20.1438 26.6937V24.7648C20.1429 24.5849 20.0206 24.5729 19.8879 24.5706H19.8204V24.428H19.8362C19.9042 24.428 19.9895 24.4312 20.0795 24.4346C20.1799 24.4383 20.2861 24.4423 20.3806 24.4423C20.4735 24.4423 20.576 24.4387 20.6772 24.435C20.7759 24.4315 20.8734 24.428 20.9595 24.428H20.9748V24.5706H20.9079C20.7732 24.5729 20.6521 24.5849 20.6508 24.7648V26.6937C20.6521 26.8737 20.7732 26.8854 20.9079 26.8876H20.9748V27.0299H20.9595Z" fill="#1A1919"/>
  <path fill-rule="evenodd" clip-rule="evenodd" d="M21.053 25.7474C21.0546 24.973 21.654 24.374 22.4275 24.3728C23.218 24.3736 23.8526 24.8649 23.854 25.659C23.8531 26.5148 23.2382 27.0835 22.4467 27.0849C21.6591 27.0835 21.0546 26.5479 21.053 25.7474ZM22.4834 26.8912C23.1834 26.8906 23.3051 26.2773 23.3062 25.7404C23.3062 25.2071 23.019 24.5679 22.4205 24.5669C21.7889 24.5676 21.6023 25.1279 21.6006 25.6183C21.6009 26.2742 21.9002 26.8902 22.4834 26.8912Z" fill="#1A1919"/>
  <path fill-rule="evenodd" clip-rule="evenodd" d="M24.353 24.4423C24.3905 24.4423 24.4276 24.4406 24.4651 24.4387L24.6959 24.437L26.3108 26.2551V24.9009C26.3095 24.6085 26.1134 24.5729 26.0059 24.5706H25.9089V24.4281L25.9309 24.428C26.0158 24.4281 26.1 24.4317 26.1841 24.4352C26.2694 24.4388 26.3546 24.4423 26.4402 24.4423C26.5153 24.4423 26.5902 24.4388 26.6654 24.4352C26.7412 24.4316 26.8173 24.428 26.8941 24.428H26.9096V24.5706H26.8385C26.6868 24.5745 26.5301 24.5884 26.5271 25.0221V26.6973C26.5271 26.8263 26.53 26.9548 26.5478 27.0668L26.551 27.0849H26.5333L26.381 27.0798L24.5125 24.9974V26.473C24.5168 26.7935 24.5654 26.8837 24.8419 26.8869H24.9212V27.0299H24.9056C24.8257 27.0299 24.746 27.0262 24.6667 27.0225C24.5878 27.0188 24.5091 27.0151 24.4306 27.0151C24.3484 27.0151 24.265 27.0188 24.1814 27.0225C24.0973 27.0262 24.0129 27.0299 23.9292 27.0299H23.9141V26.8869H23.9812C24.2238 26.8862 24.2938 26.7298 24.2967 26.4366V24.8854C24.2966 24.6892 24.1356 24.5706 23.9774 24.5706H23.9141V24.428H23.9297C24.0004 24.428 24.0717 24.4316 24.1427 24.4352C24.2133 24.4388 24.2837 24.4423 24.353 24.4423ZM26.0333 24.5394C26.073 24.5424 26.1207 24.5516 26.1666 24.5734C26.1212 24.5509 26.0733 24.542 26.0333 24.5394ZM26.6514 24.5802C26.6994 24.5491 26.7547 24.5408 26.8092 24.539C26.7556 24.5413 26.7003 24.5506 26.6514 24.5802ZM23.9451 26.9983V26.9981C23.9895 26.9978 24.0342 26.9966 24.079 26.995C24.0341 26.9967 23.9894 26.998 23.9451 26.9983ZM24.8894 26.9983C24.8315 26.9978 24.7736 26.9956 24.7157 26.9931C24.7736 26.9956 24.8315 26.9977 24.8894 26.9981V26.9983Z" fill="#1A1919"/>
  <path d="M25.9089 24.4281V24.428H25.9258L25.9089 24.4281Z" fill="#1A1919"/>
  <path d="M24.6959 24.437L24.4651 24.4387C24.4822 24.4376 24.4993 24.4365 24.5164 24.4353C24.5706 24.4317 24.625 24.428 24.6806 24.428L24.6854 24.4334C24.6879 24.4335 24.6904 24.4336 24.6929 24.4337L24.6959 24.437Z" fill="#1A1919"/>
  <path fill-rule="evenodd" clip-rule="evenodd" d="M29.4473 27.0298C29.42 27.0288 29.3927 27.0276 29.3654 27.0265C29.2267 27.0208 29.0871 27.0151 28.9404 27.0151C28.7934 27.0151 28.6431 27.0206 28.4905 27.0262C28.4567 27.0274 28.4227 27.0286 28.3886 27.0298L28.3723 27.0307V26.8875H28.4284C28.5139 26.8875 28.6408 26.8677 28.6409 26.7968C28.6419 26.7549 28.6086 26.6544 28.5672 26.5369L28.4275 26.1203H27.6147L27.501 26.4924C27.4882 26.5358 27.4747 26.5757 27.4625 26.6118C27.4392 26.6805 27.4206 26.7354 27.4208 26.7745C27.4208 26.8647 27.559 26.8875 27.6806 26.8875H27.7369V27.0307L27.7204 27.0298C27.6972 27.0288 27.674 27.0277 27.6507 27.0267C27.526 27.0209 27.3995 27.0151 27.2759 27.0151C27.1666 27.0151 27.0573 27.0207 26.9475 27.0264C26.9247 27.0275 26.9018 27.0287 26.879 27.0298L26.8629 27.0307V26.8875H26.8999C27.0372 26.8868 27.152 26.8082 27.2059 26.6588L27.7948 24.9688C27.8004 24.9526 27.8063 24.9358 27.8123 24.9184C27.8573 24.7895 27.9123 24.632 27.9408 24.5028C28.0565 24.4626 28.2044 24.3888 28.276 24.3443L28.2782 24.3435C28.2871 24.34 28.2969 24.3362 28.3109 24.3362C28.3203 24.3354 28.3397 24.3378 28.351 24.3578C28.3558 24.3703 28.3605 24.3836 28.3654 24.3971L28.3654 24.3972L28.3654 24.3972L28.3654 24.3973C28.3718 24.4151 28.3782 24.4331 28.385 24.45L29.0621 26.3756C29.0699 26.3985 29.0778 26.4215 29.0856 26.4446L29.0858 26.4452L29.0861 26.4462L29.0862 26.4462C29.1224 26.553 29.159 26.6605 29.1981 26.7504C29.2414 26.8478 29.3081 26.8866 29.4258 26.8875H29.4639V27.0307L29.4473 27.0298ZM27.6957 25.8822H28.3399L28.0196 24.8962L27.6957 25.8822Z" fill="#1A1919"/>
  <path d="M31.521 27.0299C31.3584 27.0299 31.1959 27.0262 31.0337 27.0225C30.8719 27.0188 30.7103 27.0151 30.549 27.0151C30.3872 27.0151 30.2253 27.0188 30.0633 27.0225C29.9011 27.0262 29.7388 27.0299 29.5764 27.0299H29.5609V26.8876H29.6281C29.7612 26.8844 29.8876 26.875 29.8891 26.6571V24.7641C29.8876 24.5849 29.7617 24.5729 29.6281 24.5706H29.5609V24.428H29.5764C29.6747 24.428 29.7718 24.4316 29.8688 24.4352C29.9652 24.4388 30.0614 24.4423 30.1582 24.4423C30.2517 24.4423 30.3442 24.4388 30.4369 24.4352C30.5301 24.4316 30.6236 24.428 30.7186 24.428H30.7334V24.5706H30.6261C30.6199 24.5707 30.6138 24.5708 30.6078 24.571C30.4757 24.574 30.3945 24.5758 30.3914 24.7535V26.653C30.3924 26.7907 30.4826 26.8275 30.5977 26.844C30.6625 26.8484 30.7311 26.8508 30.8019 26.8508C30.8919 26.8508 30.9854 26.8466 31.0806 26.8366C31.2306 26.8187 31.3596 26.732 31.4233 26.6442C31.4802 26.5655 31.5122 26.4646 31.5345 26.3845L31.5376 26.3723H31.6764L31.6732 26.3917C31.6487 26.5154 31.6211 26.6374 31.5934 26.7596L31.5934 26.7597C31.574 26.8453 31.5546 26.931 31.5362 27.0175L31.5333 27.0299H31.521Z" fill="#1A1919"/>
  <path fill-rule="evenodd" clip-rule="evenodd" d="M31.4194 24.9138V24.9326H31.6067V24.9138C31.6024 24.9132 31.5985 24.9126 31.5948 24.9121C31.5575 24.907 31.5501 24.906 31.5501 24.8829V24.7544H31.593C31.6146 24.7853 31.6326 24.8139 31.6481 24.8387C31.6839 24.8957 31.7072 24.9326 31.7324 24.9326H31.8078V24.9203C31.7861 24.907 31.7522 24.8691 31.7225 24.8289L31.6587 24.74C31.7125 24.7234 31.7504 24.6806 31.7504 24.6231C31.7504 24.5525 31.6875 24.5199 31.6194 24.5199H31.4209V24.5397C31.4716 24.5375 31.4757 24.5514 31.4757 24.5919V24.8792C31.4757 24.9059 31.4681 24.907 31.43 24.9123C31.4267 24.9128 31.4231 24.9133 31.4194 24.9138ZM31.5958 24.7282H31.5501V24.5457H31.5933C31.6333 24.5457 31.669 24.5676 31.669 24.6292C31.669 24.6904 31.6459 24.7282 31.5958 24.7282Z" fill="#1A1919"/>
  <path fill-rule="evenodd" clip-rule="evenodd" d="M32 24.7282C32 24.5102 31.8343 24.3396 31.6121 24.3396C31.3905 24.3396 31.2245 24.5102 31.2245 24.7282C31.2245 24.946 31.3905 25.1148 31.6121 25.1148C31.8343 25.1148 32 24.946 32 24.7282ZM31.9189 24.7282C31.9189 24.8949 31.7861 25.0427 31.6121 25.0427C31.4376 25.0427 31.305 24.8949 31.305 24.7282C31.305 24.5612 31.4376 24.4122 31.6121 24.4122C31.7876 24.4122 31.9189 24.5612 31.9189 24.7282Z" fill="#1A1919"/>
  <path fill-rule="evenodd" clip-rule="evenodd" d="M8.61523 11.4453C8.61523 8.00134 11.4071 5.20947 14.8509 5.20947C18.2949 5.20947 21.0868 8.00134 21.0868 11.4453C21.0868 14.8893 18.2949 17.6813 14.8509 17.6813C11.4071 17.6813 8.61523 14.8893 8.61523 11.4453Z" fill="#FFFFFE"/>
  <path fill-rule="evenodd" clip-rule="evenodd" d="M18.6222 11.3225C18.6197 9.72563 17.6215 8.3637 16.215 7.82434V14.8205C17.6215 14.2804 18.6197 12.9197 18.6222 11.3225ZM13.5318 14.8191V7.82508C12.1265 8.36612 11.1299 9.72609 11.1261 11.3226C11.1299 12.9186 12.1265 14.2785 13.5318 14.8191ZM14.8741 5.40919C11.6084 5.41044 8.96256 8.05681 8.96201 11.3225C8.96256 14.5878 11.6084 17.2338 14.8741 17.2344C18.1398 17.2338 20.7862 14.5878 20.787 11.3225C20.7862 8.05681 18.1398 5.41044 14.8741 5.40919ZM14.8596 17.7924C11.286 17.8094 8.34473 14.9143 8.34473 11.39C8.34473 7.53837 11.286 4.8743 14.8596 4.875H16.5343C20.0656 4.8743 23.2886 7.53711 23.2886 11.39C23.2886 14.913 20.0656 17.7924 16.5343 17.7924H14.8596Z" fill="#0069AA"/>
</svg>