<svg xmlns="http://www.w3.org/2000/svg" width="32" height="32" viewBox="0 0 32 32" fill="none">
  <path d="M12.464 18.5418C10.9597 18.5418 9.79117 17.4285 9.79117 15.9918C9.79117 14.5726 10.9886 13.4375 12.4843 13.4375C12.912 13.4375 13.267 13.5249 13.6996 13.7361V14.8575C13.29 14.4681 12.9322 14.308 12.464 14.308C11.5361 14.308 10.8092 15.0493 10.8092 15.985C10.8092 16.9753 11.5133 17.6694 12.5073 17.6694C12.9566 17.6694 13.3039 17.518 13.6996 17.1343V18.2571C13.2519 18.461 12.8882 18.5418 12.464 18.5418Z" fill="#E6772F"/>
  <path d="M8.02288 15.4203C7.42907 15.2101 7.2555 15.0701 7.2555 14.8061C7.2555 14.4992 7.56568 14.2664 7.99222 14.2664C8.28785 14.2664 8.53139 14.3806 8.79085 14.6597L9.30447 14.0094C8.88009 13.649 8.37218 13.4665 7.81846 13.4665C6.92253 13.4665 6.23967 14.068 6.23967 14.8634C6.23967 15.5387 6.55712 15.8812 7.48352 16.2066C7.87074 16.3365 8.0675 16.4253 8.16716 16.4854C8.36451 16.6085 8.46279 16.7849 8.46279 16.9888C8.46279 17.3862 8.1365 17.6783 7.69541 17.6783C7.22582 17.6783 6.84587 17.4515 6.61844 17.0254L5.98197 17.6203C6.43702 18.2637 6.98248 18.5513 7.73394 18.5513C8.75881 18.5513 9.48098 17.8891 9.48098 16.9459C9.48098 16.1688 9.14604 15.8166 8.02288 15.4203Z" fill="#E6772F"/>
  <path fill-rule="evenodd" clip-rule="evenodd" d="M0 13.5479H1.45083C3.05124 13.5479 4.16772 14.5496 4.16772 15.9918C4.16772 16.7122 3.8255 17.4076 3.24879 17.8682C2.76328 18.257 2.20936 18.4332 1.44198 18.4332H0V13.5479ZM1.25288 17.6055C1.89191 17.6055 2.29152 17.4871 2.60543 17.2164C2.94529 16.9249 3.14951 16.4558 3.14951 15.985C3.14951 15.5164 2.94529 15.0635 2.60543 14.7698C2.27619 14.4857 1.89191 14.3753 1.25288 14.3753H0.98772V17.6055H1.25288Z" fill="#E6772F"/>
  <path d="M5.60694 13.5479H4.62314V18.4332H5.60694V13.5479Z" fill="#E6772F"/>
  <path d="M21.6981 16.8277L20.3481 13.5479H19.2718L21.4178 18.5565H21.9472L24.1349 13.5479H23.067L21.6981 16.8277Z" fill="#E6772F"/>
  <path d="M27.3825 18.4332H24.5829V13.5479H27.3825V14.3753H25.5706V15.4591H27.3137V16.2867H25.5706V17.6054H27.3825V18.4332Z" fill="#E6772F"/>
  <path fill-rule="evenodd" clip-rule="evenodd" d="M31.2908 14.9893C31.2908 14.0744 30.6406 13.5479 29.5007 13.5479H28.0343V18.4332H29.0242V16.469H29.1526L30.5165 18.4332H31.7311L30.1383 16.3742C30.8827 16.2274 31.2908 15.7368 31.2908 14.9893ZM29.3108 15.7944H29.0242V14.3167H29.3269C29.9437 14.3167 30.2742 14.5665 30.2742 15.0425C30.2742 15.5315 29.9437 15.7944 29.3108 15.7944Z" fill="#E6772F"/>
  <path d="M16.7719 18.5497C18.23 18.5497 19.4109 17.4097 19.4109 16.0032C19.4109 14.5964 18.23 13.4562 16.7719 13.4562C15.3142 13.4562 14.133 14.5964 14.133 16.0032C14.133 17.4097 15.3142 18.5497 16.7719 18.5497Z" fill="#E6772F"/>
</svg>