<svg xmlns="http://www.w3.org/2000/svg" width="32" height="32" viewBox="0 0 32 32" fill="none">
  <path d="M5.82129 28.3127V26.6647C5.83096 26.5261 5.81096 26.387 5.76263 26.2567C5.71431 26.1265 5.63876 26.008 5.54103 25.9092C5.44331 25.8105 5.32565 25.7337 5.1959 25.684C5.06615 25.6343 4.9273 25.6128 4.7886 25.621C4.60708 25.6092 4.4257 25.6463 4.26338 25.7284C4.10107 25.8105 3.96375 25.9347 3.86575 26.0879C3.77643 25.9392 3.64868 25.8174 3.49593 25.7352C3.34319 25.6531 3.17111 25.6136 2.99783 25.621C2.84678 25.6134 2.69636 25.6454 2.56147 25.7138C2.42659 25.7822 2.31191 25.8847 2.22878 26.011V25.6869H1.65747V28.3127H2.23425V26.8569C2.22178 26.7671 2.22936 26.6756 2.25644 26.5891C2.28352 26.5025 2.32943 26.4231 2.39088 26.3564C2.45232 26.2897 2.52778 26.2374 2.61182 26.2033C2.69587 26.1693 2.78642 26.1542 2.87696 26.1593C3.25599 26.1593 3.44827 26.4065 3.44827 26.8514V28.3127H4.02505V26.8569C4.01352 26.7673 4.02175 26.6762 4.04918 26.59C4.07661 26.5039 4.12256 26.4248 4.18381 26.3583C4.24506 26.2919 4.32013 26.2396 4.40373 26.2052C4.48734 26.1708 4.57745 26.1552 4.66776 26.1593C5.05774 26.1593 5.24451 26.4065 5.24451 26.8514V28.3127H5.82129ZM14.3577 25.6869H13.4238V24.8904H12.8471V25.6869H12.3142V26.2088H12.8471V27.4063C12.8471 28.016 13.0833 28.3786 13.7589 28.3786C14.0113 28.3793 14.2588 28.3089 14.473 28.1753L14.3083 27.6864C14.1551 27.7778 13.9812 27.8288 13.8029 27.8347C13.5172 27.8347 13.4238 27.6589 13.4238 27.3953V26.2088H14.3577V25.6869ZM19.2301 25.621C19.0908 25.6169 18.953 25.6504 18.8312 25.7181C18.7094 25.7858 18.6081 25.8851 18.538 26.0055V25.6869H17.9722V28.3127H18.5435V26.8405C18.5435 26.4065 18.7302 26.1648 19.1038 26.1648C19.226 26.1631 19.3473 26.1855 19.4608 26.2307L19.6366 25.6924C19.5061 25.6457 19.3687 25.6216 19.2301 25.621ZM11.8638 25.8956C11.5404 25.7034 11.1686 25.608 10.7926 25.621C10.1279 25.621 9.6995 25.9396 9.6995 26.4614C9.6995 26.8899 10.0181 27.1536 10.6058 27.236L10.875 27.2744C11.1881 27.3183 11.3364 27.4008 11.3364 27.5491C11.3364 27.7523 11.1277 27.8677 10.7377 27.8677C10.424 27.8767 10.1163 27.78 9.86426 27.593L9.59511 28.038C9.92787 28.2704 10.3265 28.3898 10.7322 28.3786C11.4902 28.3786 11.9297 28.0215 11.9297 27.5216C11.9297 27.0602 11.5836 26.8185 11.0123 26.7361L10.7432 26.6976C10.496 26.6647 10.2982 26.6153 10.2982 26.4395C10.2982 26.2472 10.485 26.1319 10.7981 26.1319C11.0856 26.1362 11.3673 26.2137 11.6166 26.3571L11.8638 25.8956ZM27.1677 25.621C27.0284 25.6169 26.8906 25.6504 26.7688 25.7181C26.647 25.7858 26.5457 25.8851 26.4756 26.0055V25.6869H25.9098V28.3127H26.4811V26.8405C26.4811 26.4065 26.6679 26.1648 27.0414 26.1648C27.1636 26.1631 27.2849 26.1855 27.3985 26.2307L27.5742 25.6924C27.4438 25.6457 27.3063 25.6216 27.1677 25.621ZM19.8069 26.9997C19.7993 27.1847 19.8305 27.3692 19.8985 27.5414C19.9665 27.7136 20.0698 27.8697 20.2017 27.9995C20.3337 28.1294 20.4914 28.2302 20.6646 28.2955C20.8378 28.3608 21.0228 28.3891 21.2077 28.3786C21.5507 28.3958 21.8877 28.2841 22.1525 28.0654L21.8778 27.604C21.6803 27.7546 21.4395 27.8374 21.1912 27.8402C20.9771 27.8272 20.776 27.733 20.629 27.5768C20.482 27.4206 20.4002 27.2143 20.4002 26.9998C20.4002 26.7853 20.482 26.5789 20.629 26.4227C20.776 26.2665 20.9771 26.1723 21.1912 26.1593C21.4395 26.1621 21.6803 26.245 21.8778 26.3956L22.1525 25.9341C21.8877 25.7155 21.5506 25.6038 21.2077 25.621C21.0228 25.6105 20.8379 25.6388 20.6646 25.7041C20.4914 25.7693 20.3337 25.8701 20.2018 26C20.0698 26.1299 19.9665 26.2859 19.8985 26.4581C19.8305 26.6302 19.7993 26.8148 19.8069 26.9997ZM25.1572 26.9997V25.6869H24.5859V26.0055C24.4884 25.8799 24.3622 25.7794 24.2179 25.7125C24.0736 25.6456 23.9154 25.6142 23.7565 25.621C23.4025 25.6384 23.0687 25.7912 22.8243 26.0479C22.5799 26.3045 22.4436 26.6454 22.4436 26.9998C22.4436 27.3542 22.5799 27.6951 22.8243 27.9517C23.0687 28.2084 23.4025 28.3612 23.7565 28.3786C23.9154 28.3854 24.0736 28.354 24.2179 28.2871C24.3622 28.2202 24.4884 28.1197 24.5859 27.994V28.3127H25.1572V26.9997ZM23.0314 26.9997C23.0402 26.8448 23.0942 26.6958 23.1868 26.5712C23.2793 26.4466 23.4062 26.3518 23.552 26.2985C23.6977 26.2452 23.8559 26.2357 24.007 26.2711C24.1581 26.3066 24.2954 26.3856 24.4022 26.4982C24.509 26.6109 24.5804 26.7523 24.6078 26.9051C24.6351 27.0578 24.6171 27.2153 24.5561 27.358C24.495 27.5006 24.3935 27.6223 24.2642 27.708C24.1348 27.7937 23.9831 27.8397 23.8279 27.8402C23.7191 27.8417 23.6112 27.8206 23.511 27.7783C23.4108 27.736 23.3204 27.6734 23.2455 27.5944C23.1707 27.5155 23.113 27.4219 23.0762 27.3195C23.0393 27.2172 23.0241 27.1083 23.0314 26.9997ZM16.1375 25.621C15.7812 25.6398 15.4461 25.7958 15.2023 26.0563C14.9586 26.3168 14.8252 26.6616 14.8302 27.0183C14.8352 27.375 14.9781 27.716 15.229 27.9696C15.4799 28.2232 15.8193 28.3698 16.1759 28.3786C16.5679 28.3923 16.9511 28.2613 17.2526 28.0105L16.9724 27.5875C16.7555 27.7614 16.4868 27.858 16.2089 27.8622C16.0201 27.8781 15.8326 27.8199 15.6859 27.6999C15.5393 27.5799 15.4452 27.4076 15.4234 27.2195H17.3734C17.3789 27.1481 17.3844 27.0767 17.3844 26.9997C17.3789 26.1813 16.8736 25.621 16.1375 25.621ZM16.1265 26.1319C16.299 26.1285 16.4659 26.1937 16.5905 26.3131C16.7151 26.4326 16.7872 26.5965 16.7912 26.7691H15.4288C15.4389 26.5928 15.5175 26.4274 15.6478 26.3083C15.7782 26.1893 15.95 26.1259 16.1265 26.1319ZM30.4581 26.9997V24.6323H29.8868V26.0055C29.7893 25.8799 29.6631 25.7794 29.5188 25.7125C29.3745 25.6456 29.2163 25.6142 29.0574 25.621C28.7034 25.6383 28.3696 25.7912 28.1252 26.0479C27.8808 26.3045 27.7445 26.6454 27.7445 26.9998C27.7445 27.3542 27.8808 27.6951 28.1252 27.9517C28.3696 28.2084 28.7034 28.3612 29.0574 28.3786C29.2163 28.3854 29.3745 28.354 29.5188 28.2871C29.6631 28.2202 29.7893 28.1197 29.8868 27.994V28.3127H30.4581V26.9997ZM31.4104 27.9321C31.4459 27.9319 31.4811 27.9389 31.5138 27.9526C31.5452 27.9657 31.5739 27.9847 31.5982 28.0086C31.6224 28.0324 31.6417 28.0606 31.6551 28.0917C31.6689 28.1237 31.6759 28.1582 31.6759 28.193C31.6759 28.2278 31.6689 28.2622 31.6551 28.2942C31.6416 28.3252 31.6223 28.3533 31.5982 28.377C31.5738 28.4009 31.5452 28.4199 31.5138 28.4333C31.4811 28.4473 31.446 28.4543 31.4104 28.4541C31.3582 28.4546 31.3069 28.4397 31.2631 28.4113C31.2192 28.3829 31.1847 28.3421 31.1639 28.2942C31.1502 28.2622 31.1431 28.2278 31.1431 28.193C31.1431 28.1582 31.1502 28.1237 31.1639 28.0917C31.1773 28.0606 31.1965 28.0324 31.2205 28.0086C31.2448 27.9846 31.2736 27.9655 31.3053 27.9526C31.3386 27.9388 31.3744 27.9318 31.4104 27.9321ZM31.4104 28.3965C31.4375 28.3967 31.4643 28.3913 31.4892 28.3805C31.513 28.3702 31.5347 28.3554 31.5531 28.337C31.591 28.2987 31.6123 28.247 31.6123 28.1931C31.6123 28.1392 31.591 28.0875 31.5531 28.0492C31.5347 28.0308 31.5131 28.0162 31.4892 28.006C31.4643 27.9954 31.4375 27.9901 31.4104 27.9903C31.3829 27.9901 31.3556 27.9955 31.3302 28.006C31.3059 28.016 31.2839 28.0307 31.2653 28.0492C31.2273 28.0874 31.206 28.1392 31.206 28.1931C31.206 28.247 31.2273 28.2987 31.2653 28.337C31.2839 28.3556 31.306 28.3703 31.3302 28.3805C31.3556 28.3913 31.3829 28.3967 31.4104 28.3965ZM31.4258 28.0709C31.4515 28.0692 31.477 28.0766 31.4978 28.0917C31.5061 28.0986 31.5127 28.1072 31.5171 28.1171C31.5215 28.1269 31.5235 28.1376 31.523 28.1483C31.5233 28.1575 31.5217 28.1667 31.5182 28.1752C31.5148 28.1838 31.5095 28.1915 31.5029 28.1979C31.487 28.212 31.4669 28.2204 31.4456 28.2219L31.525 28.3134H31.4629L31.3894 28.2225H31.3657V28.3134H31.3139V28.0709H31.4258ZM31.3657 28.1164V28.181H31.4252C31.4366 28.1815 31.448 28.1787 31.4578 28.1729C31.4618 28.1703 31.4651 28.1666 31.4672 28.1623C31.4693 28.1579 31.4703 28.1531 31.47 28.1483C31.4702 28.1436 31.4692 28.1389 31.4671 28.1347C31.465 28.1305 31.4618 28.1269 31.4578 28.1243C31.448 28.1186 31.4366 28.1158 31.4252 28.1164H31.3657ZM28.3323 26.9997C28.3412 26.8448 28.3952 26.6958 28.4877 26.5712C28.5802 26.4466 28.7072 26.3518 28.8529 26.2985C28.9987 26.2452 29.1568 26.2357 29.3079 26.2712C29.459 26.3067 29.5964 26.3857 29.7031 26.4983C29.8099 26.611 29.8813 26.7524 29.9086 26.9052C29.936 27.0579 29.918 27.2153 29.8569 27.358C29.7959 27.5007 29.6944 27.6224 29.565 27.708C29.4356 27.7937 29.284 27.8397 29.1288 27.8402C29.02 27.8417 28.9121 27.8206 28.8119 27.7783C28.7117 27.736 28.6213 27.6734 28.5464 27.5944C28.4716 27.5155 28.414 27.4219 28.3771 27.3195C28.3402 27.2171 28.325 27.1083 28.3323 26.9997ZM9.0403 26.9997V25.6869H8.46899V26.0055C8.37148 25.8799 8.24529 25.7794 8.10098 25.7125C7.95667 25.6456 7.79844 25.6142 7.63952 25.621C7.28553 25.6384 6.95178 25.7912 6.70739 26.0479C6.46299 26.3045 6.32668 26.6454 6.32668 26.9998C6.32668 27.3542 6.46299 27.6951 6.70739 27.9517C6.95178 28.2084 7.28553 28.3612 7.63952 28.3786C7.79844 28.3854 7.95667 28.354 8.10098 28.2871C8.24529 28.2202 8.37148 28.1197 8.46899 27.994V28.3127H9.0403V26.9997ZM6.91446 26.9997C6.92334 26.8448 6.97736 26.6958 7.06988 26.5712C7.16239 26.4466 7.28935 26.3518 7.43509 26.2985C7.58084 26.2452 7.739 26.2357 7.89007 26.2712C8.04115 26.3067 8.17853 26.3857 8.28528 26.4983C8.39202 26.611 8.46347 26.7524 8.4908 26.9052C8.51814 27.0579 8.50016 27.2153 8.4391 27.358C8.37803 27.5007 8.27655 27.6224 8.14716 27.7081C8.01777 27.7937 7.86613 27.8397 7.71094 27.8402C7.60217 27.8417 7.49426 27.8206 7.39404 27.7783C7.29382 27.736 7.20344 27.6734 7.12862 27.5944C7.05379 27.5155 6.99613 27.4219 6.95927 27.3195C6.92241 27.2171 6.90716 27.1083 6.91446 26.9997Z" fill="#231F20"/>
  <path d="M20.3267 5.67627H11.6738V21.2258H20.3267V5.67627Z" fill="#FF5F00"/>
  <path d="M12.2232 13.4515C12.2218 11.954 12.5611 10.4758 13.2155 9.12881C13.8699 7.78182 14.8222 6.60135 16.0002 5.67678C14.5414 4.5301 12.7893 3.817 10.9444 3.61898C9.09943 3.42096 7.23598 3.74601 5.56703 4.55698C3.89808 5.36795 2.49096 6.63212 1.50651 8.205C0.522061 9.77788 0 11.596 0 13.4515C0 15.3071 0.522061 17.1252 1.50651 18.6981C2.49096 20.271 3.89808 21.5351 5.56703 22.3461C7.23598 23.1571 9.09943 23.4821 10.9444 23.2841C12.7893 23.0861 14.5414 22.373 16.0002 21.2263C14.8222 20.3017 13.8699 19.1213 13.2155 17.7743C12.5612 16.4273 12.2218 14.9491 12.2232 13.4515Z" fill="#EB001B"/>
  <path d="M31.9999 13.4515C32 15.3071 31.478 17.1252 30.4936 18.6981C29.5092 20.2709 28.1022 21.5351 26.4332 22.3461C24.7643 23.1571 22.9009 23.4821 21.056 23.2841C19.211 23.0861 17.459 22.373 16.0002 21.2263C17.1772 20.3008 18.1288 19.1202 18.783 17.7734C19.4373 16.4266 19.7773 14.9488 19.7773 13.4515C19.7773 11.9542 19.4373 10.4765 18.783 9.12972C18.1288 7.78294 17.1772 6.60228 16.0002 5.67678C17.459 4.5301 19.211 3.81699 21.056 3.61898C22.9009 3.42096 24.7643 3.74602 26.4332 4.557C28.1022 5.36798 29.5092 6.63215 30.4936 8.20503C31.478 9.77791 32 11.596 31.9999 13.4515Z" fill="#F79E1B"/>
  <path d="M31.0566 19.579V19.2607H31.1849V19.1958H30.858V19.2607H30.9865V19.579H31.0566ZM31.6913 19.579V19.1952H31.5911L31.4758 19.4592L31.3605 19.1952H31.2602V19.579H31.331V19.2895L31.4391 19.5391H31.5125L31.6206 19.2889V19.579H31.6913Z" fill="#F79E1B"/>
</svg>