<svg xmlns="http://www.w3.org/2000/svg" width="100" height="27" viewBox="0 0 100 27" fill="none">
  <path d="M67.4795 0.0010376H59.7003C59.1691 0.0010376 58.7165 0.387724 58.6335 0.913162L55.4877 20.8582C55.4251 21.2517 55.7299 21.6066 56.1268 21.6066H60.1188C60.4896 21.6066 60.8069 21.3359 60.8649 20.9674L61.7577 15.3138C61.8395 14.7872 62.2933 14.4005 62.8245 14.4005H65.2856C70.4103 14.4005 73.3662 11.9212 74.1396 7.00802C74.4887 4.8585 74.1532 3.16959 73.1467 1.98678C72.0424 0.687974 70.0828 0.0010376 67.4795 0.0010376ZM68.3768 7.28552C67.9526 10.0765 65.8201 10.0765 63.7571 10.0765H62.5845L63.409 4.86418C63.4579 4.54915 63.7286 4.31714 64.0482 4.31714H64.5862C65.9896 4.31714 67.3157 4.31714 68.0004 5.11781C68.4087 5.59548 68.5326 6.30516 68.3768 7.28552Z" fill="#179BD7"/>
  <path d="M90.728 7.19581H87.0056C86.686 7.19581 86.4142 7.42782 86.3664 7.74286L86.2015 8.78464L85.94 8.40705C85.1336 7.23676 83.3366 6.84552 81.542 6.84552C77.426 6.84552 73.9117 9.96289 73.2271 14.3359C72.8722 16.5172 73.3761 18.6031 74.6135 20.0577C75.7508 21.3952 77.3726 21.9524 79.3049 21.9524C82.6213 21.9524 84.4603 19.82 84.4603 19.82L84.2943 20.8549C84.2317 21.2507 84.5365 21.6056 84.9357 21.6056H88.2896C88.8208 21.6056 89.2734 21.2189 89.3564 20.6923L91.3706 7.94416C91.432 7.55179 91.1272 7.19581 90.728 7.19581ZM85.5362 14.445C85.1791 16.5729 83.4879 18.0014 81.3338 18.0014C80.2545 18.0014 79.3879 17.6545 78.8329 16.9972C78.2824 16.3444 78.0754 15.4152 78.2483 14.3802C78.5861 12.2705 80.3012 10.7954 82.4222 10.7954C83.4799 10.7954 84.3398 11.1468 84.9061 11.8099C85.4759 12.4798 85.7011 13.4146 85.5362 14.445Z" fill="#179BD7"/>
  <path d="M95.1195 0.548123L91.9271 20.8582C91.8646 21.2518 92.1694 21.6066 92.5663 21.6066H95.7758C96.3092 21.6066 96.7618 21.2199 96.8437 20.6933L99.9918 0.749428C100.054 0.355918 99.7495 -6.10352e-05 99.3526 -6.10352e-05H95.7587C95.4414 0.00107628 95.1685 0.233088 95.1195 0.548123Z" fill="#179BD7"/>
  <path d="M12 0.0010376H4.22191C3.68965 0.0010376 3.23699 0.387724 3.15397 0.913162L0.00816549 20.8582C-0.0543867 21.2517 0.250412 21.6066 0.649609 21.6066H4.36293C4.89519 21.6066 5.34785 21.2199 5.43087 20.6933L6.2793 15.3138C6.36119 14.7872 6.81498 14.4005 7.3461 14.4005H9.80838C14.932 14.4005 17.889 11.9212 18.6612 7.00802C19.0092 4.8585 18.676 3.16959 17.6695 1.98678C16.564 0.687974 14.6033 0.0010376 12 0.0010376ZM12.8973 7.28552C12.472 10.0765 10.3395 10.0765 8.27756 10.0765H7.10385L7.92727 4.86418C7.97618 4.54915 8.24913 4.31714 8.56758 4.31714H9.10553C10.5101 4.31714 11.8351 4.31714 12.5197 5.11781C12.928 5.59548 13.0531 6.30516 12.8973 7.28552Z" fill="#253B80"/>
  <path d="M35.2505 7.19587H31.5258C31.2085 7.19587 30.9344 7.42788 30.8855 7.74292L30.7206 8.7847L30.4601 8.40711C29.6538 7.23682 27.8557 6.84558 26.061 6.84558C21.9451 6.84558 18.4296 9.96295 17.745 14.3359C17.389 16.5173 17.8951 18.6031 19.1325 20.0577C20.2675 21.3952 21.8916 21.9525 23.8239 21.9525C27.1403 21.9525 28.9793 19.82 28.9793 19.82L28.8133 20.855C28.7507 21.2508 29.0555 21.6056 29.4525 21.6056H32.8075C33.3409 21.6056 33.7913 21.2189 33.8755 20.6924L35.8885 7.94422C35.9522 7.55185 35.6485 7.19587 35.2505 7.19587ZM30.0586 14.4451C29.6993 16.573 28.0103 18.0015 25.8563 18.0015C24.7747 18.0015 23.9103 17.6546 23.3553 16.9972C22.8049 16.3444 22.5956 15.4152 22.7708 14.3803C23.1063 12.2706 24.8236 10.7955 26.9447 10.7955C28.0024 10.7955 28.8622 11.1469 29.4286 11.8099C29.9961 12.4798 30.2213 13.4147 30.0586 14.4451Z" fill="#253B80"/>
  <path d="M55.0873 7.19562H51.3444C50.9873 7.19562 50.6518 7.37304 50.4494 7.66988L45.2871 15.2739L43.0989 7.96672C42.9613 7.50952 42.5394 7.19562 42.0617 7.19562H38.3836C37.9367 7.19562 37.6262 7.63235 37.7683 8.05315L41.8911 20.1519L38.0151 25.6235C37.7103 26.0545 38.0174 26.6471 38.544 26.6471H42.2823C42.6372 26.6471 42.9693 26.4742 43.1706 26.183L55.6196 8.21351C55.9176 7.78361 55.6116 7.19562 55.0873 7.19562Z" fill="#253B80"/>
</svg>