<svg xmlns="http://www.w3.org/2000/svg" width="64" height="26" viewBox="0 0 64 26" fill="none">
  <path d="M63.4576 13.4339C63.4576 8.99065 61.2719 5.48465 57.0942 5.48465C52.899 5.48465 50.3607 8.99065 50.3607 13.3992C50.3607 18.6235 53.3573 21.2617 57.6583 21.2617C59.7559 21.2617 61.3424 20.7931 62.541 20.1335V16.6622C61.3424 17.2523 59.9675 17.6168 58.2224 17.6168C56.5125 17.6168 54.9966 17.0267 54.8027 14.9786H63.4224C63.4224 14.753 63.4576 13.8505 63.4576 13.4339ZM54.7498 11.785C54.7498 9.82376 55.9661 9.00801 57.0766 9.00801C58.1519 9.00801 59.2976 9.82376 59.2976 11.785H54.7498ZM43.5566 5.48465C41.8292 5.48465 40.7186 6.28304 40.1017 6.83845L39.8725 5.76235H35.9946V26L40.4014 25.0801L40.419 20.1682C41.0536 20.6195 41.9878 21.2617 43.539 21.2617C46.6942 21.2617 49.5675 18.7624 49.5675 13.2603C49.5498 8.22697 46.6414 5.48465 43.5566 5.48465ZM42.499 17.4433C41.459 17.4433 40.842 17.0788 40.419 16.6275L40.4014 10.1883C40.8597 9.68491 41.4942 9.33778 42.499 9.33778C44.1031 9.33778 45.2136 11.1081 45.2136 13.3818C45.2136 15.7076 44.1207 17.4433 42.499 17.4433ZM29.9308 4.46061L34.3553 3.52336V0L29.9308 0.919893V4.46061ZM29.9308 5.77971H34.3553V20.9666H29.9308V5.77971ZM25.1892 7.06409L24.9071 5.77971H21.0997V20.9666H25.5064V10.6742C26.5464 9.33778 28.3092 9.58077 28.8556 9.7717V5.77971C28.2915 5.57143 26.2292 5.18959 25.1892 7.06409ZM16.3756 2.01335L12.0746 2.91589L12.0569 16.8184C12.0569 19.3872 14.0136 21.279 16.6224 21.279C18.0678 21.279 19.1254 21.0187 19.7071 20.7063V17.1829C19.143 17.4085 16.358 18.2069 16.358 15.6382V9.47664H19.7071V5.77971H16.358L16.3756 2.01335ZM4.45966 10.1883C4.45966 9.51135 5.02373 9.251 5.95797 9.251C7.29763 9.251 8.98983 9.6502 10.3295 10.3618V6.28304C8.86644 5.71028 7.42102 5.48465 5.95797 5.48465C2.37966 5.48465 0 7.32443 0 10.3965C0 15.1869 6.69831 14.4232 6.69831 16.4887C6.69831 17.2871 5.99322 17.5474 5.0061 17.5474C3.54305 17.5474 1.67458 16.9573 0.193898 16.1589V20.2897C1.83322 20.984 3.49017 21.279 5.0061 21.279C8.67254 21.279 11.1932 19.4913 11.1932 16.3845C11.1756 11.2123 4.45966 12.1322 4.45966 10.1883Z" fill="#635BFF"/>
</svg>