<svg width="423" height="411" viewBox="0 0 423 411" fill="none" xmlns="http://www.w3.org/2000/svg">
<path d="M393.787 278.664C352.285 375.666 242.739 417.331 156.913 410.226C133.478 408.287 86.3243 404.384 49.5061 369.567C-21.2049 302.703 -10.3149 162.932 57.3694 80.6534C66.087 70.0569 126.42 -0.940261 220.441 0.00944048C289.283 0.705203 337.592 39.5901 343.466 44.4341C350.889 50.555 367.257 65.0971 382.01 88.1673C416.674 142.374 419.721 218.047 393.787 278.664Z" fill="url(#paint0_linear_2102_3213)"/>
<path d="M15.9393 32.5362C15.7191 30.8379 18.1631 29.9734 19.4739 31.2768C32.7815 44.5139 64.0453 83.2814 49.0967 143.946C30.3404 220.061 46.1022 250.134 67.5417 269.683C67.5417 269.683 36.5186 258.358 19.3961 227.727C-22.655 152.519 19.8658 62.7241 15.9393 32.5362Z" fill="#91B3FA"/>
<g style="mix-blend-mode:soft-light">
<path d="M24.5238 57.7785C25.4632 66.5606 26.203 75.3472 26.57 84.1367C26.9918 92.9233 27.1028 101.704 26.9032 110.479C26.6625 119.245 26.2309 128.002 25.3693 136.718C24.5546 145.437 23.3055 154.106 22.0167 162.806C20.7852 171.508 19.4876 180.267 19.2278 189.194C18.968 198.121 19.9103 207.212 22.7506 215.952C23.4626 218.13 24.2185 220.307 25.1212 222.426C25.9755 224.56 26.937 226.665 27.9424 228.756C29.997 232.977 32.3619 237.04 35.0175 240.911C40.4163 248.721 47.1581 255.848 54.7513 262.074C55.5498 262.729 56.7917 262.714 57.5256 262.041C58.2595 261.367 58.2067 260.331 57.4478 259.672C55.6497 258.114 53.8721 256.541 52.1797 254.905C51.3195 254.1 50.5004 253.263 49.6638 252.439C48.8638 251.591 48.0271 250.769 47.2565 249.9C44.1407 246.512 41.2775 242.9 38.6901 239.094C33.5526 231.587 29.6525 223.41 26.9194 215.065C25.6105 210.908 24.6584 206.648 24.0732 202.33C23.5139 198.035 23.2862 193.704 23.3921 189.375C23.5697 180.702 24.7719 172.022 25.9315 163.311C27.0911 154.601 28.1597 145.831 28.8217 137.037C29.1661 132.633 29.4201 128.23 29.5835 123.826C29.6789 121.624 29.7303 119.422 29.7758 117.209C29.8022 115.001 29.8125 112.794 29.8066 110.586C29.7538 101.755 29.3863 92.9272 28.7043 84.1015C27.9703 75.2841 26.9678 66.4872 25.5748 57.7124C25.544 57.5844 25.4671 57.4723 25.3587 57.3975C25.2504 57.3227 25.1182 57.2906 24.9877 57.3073C24.926 57.3069 24.8649 57.3188 24.808 57.3425C24.751 57.3661 24.6994 57.4009 24.6561 57.4448C24.6129 57.4888 24.5789 57.5409 24.5562 57.5982C24.5334 57.6555 24.5224 57.7168 24.5238 57.7785Z" fill="white"/>
</g>
<path d="M54.5057 224.638C54.1499 225.124 53.68 225.514 53.1375 225.776C52.5949 226.037 51.9965 226.161 51.3948 226.136C50.7931 226.111 50.2068 225.939 49.6875 225.634C49.1682 225.329 48.7318 224.901 48.417 224.388C40.8649 212.151 22.64 175.619 38.9802 128.743C52.778 89.1562 56.5005 66.3795 57.4751 55.924C57.6806 53.7119 60.5899 53.0485 61.7319 54.9493C74.398 75.925 110.004 148.227 54.5057 224.638Z" fill="#BDD0FB"/>
<g style="mix-blend-mode:soft-light">
<path d="M51.1087 223.681C51.046 223.701 50.9816 223.714 50.9164 223.721C50.6482 223.751 50.379 223.674 50.1679 223.506C49.9569 223.337 49.8211 223.092 49.7905 222.824C49.7201 222.192 42.8446 158.88 59.5444 102.972C59.6249 102.717 59.8028 102.503 60.0396 102.378C60.2764 102.253 60.5531 102.226 60.8097 102.303C61.0663 102.38 61.2821 102.555 61.4105 102.79C61.5388 103.026 61.5692 103.302 61.4952 103.56C44.9158 159.061 51.7428 221.971 51.8074 222.603C51.8326 222.835 51.7769 223.07 51.6497 223.266C51.5224 223.463 51.3314 223.609 51.1087 223.681Z" fill="white"/>
</g>
<path d="M19.6163 339.378C19.624 341.207 20.355 342.959 21.6496 344.252C22.9443 345.544 24.6976 346.272 26.5269 346.277H400.284C402.113 346.272 403.866 345.544 405.161 344.252C406.456 342.959 407.187 341.207 407.194 339.378L410.305 124.587C410.305 120.789 405.831 113.375 397.63 113.933L32.3558 104.482C29.9967 104.419 27.6495 104.837 25.4567 105.709C23.2639 106.581 21.2713 107.89 19.5998 109.556C17.9284 111.222 16.6129 113.211 15.7334 115.4C14.8538 117.59 14.4285 119.936 14.4832 122.295L19.6163 339.378Z" fill="#09005D"/>
<path d="M26.4388 332.753C26.4439 334.486 27.1344 336.146 28.3597 337.371C29.585 338.597 31.2453 339.287 32.9781 339.292H391.281C393.014 339.287 394.674 338.597 395.9 337.371C397.125 336.146 397.816 334.486 397.821 332.753L400.756 137.765C400.411 126.031 390.123 121.813 383.888 122.059L33.8045 112.664C32.1463 112.621 30.4965 112.915 28.9554 113.529C27.4143 114.142 26.0139 115.063 24.8394 116.234C23.6649 117.405 22.7407 118.803 22.1229 120.343C21.5051 121.882 21.2066 123.531 21.2456 125.19L26.4388 332.753Z" fill="#FFC10E" stroke="#26D100" stroke-miterlimit="10"/>
<path d="M393.943 240.12H393.928C393.802 240.118 393.678 240.091 393.562 240.041C393.447 239.991 393.342 239.919 393.254 239.829C393.167 239.738 393.098 239.632 393.051 239.515C393.005 239.398 392.982 239.273 392.984 239.147L393.216 223.333C393.22 223.082 393.323 222.842 393.502 222.666C393.681 222.489 393.923 222.39 394.174 222.39H394.188C394.314 222.391 394.438 222.418 394.554 222.468C394.67 222.518 394.774 222.59 394.862 222.68C394.95 222.771 395.019 222.877 395.065 222.995C395.112 223.112 395.135 223.237 395.133 223.363L394.901 239.176C394.897 239.428 394.794 239.667 394.615 239.844C394.435 240.02 394.194 240.12 393.943 240.12Z" fill="#91B3FA"/>
<path d="M394.512 201.368H394.498C394.372 201.366 394.247 201.34 394.132 201.29C394.016 201.24 393.912 201.168 393.824 201.078C393.736 200.988 393.667 200.881 393.621 200.764C393.575 200.647 393.552 200.522 393.554 200.396L394.443 139.831C394.426 136.233 393.334 133.361 391.196 131.318C387.207 127.501 380.873 127.691 380.606 127.702L268.71 124.702C268.456 124.695 268.215 124.588 268.04 124.403C267.865 124.219 267.771 123.973 267.778 123.719C267.776 123.591 267.8 123.465 267.849 123.347C267.899 123.23 267.972 123.124 268.064 123.036C268.157 122.948 268.267 122.881 268.386 122.838C268.506 122.795 268.634 122.777 268.761 122.786L380.591 125.788C381.287 125.747 388.032 125.63 392.523 129.933C395.049 132.354 396.34 135.689 396.359 139.844L395.469 200.429C395.465 200.679 395.362 200.918 395.183 201.094C395.004 201.27 394.763 201.368 394.512 201.368Z" fill="#91B3FA"/>
<path d="M0.829437 364.114L421.45 364.114C421.908 364.114 422.28 363.742 422.28 363.284V346.071C422.28 345.613 421.908 345.242 421.45 345.242L0.829437 345.242C0.371399 345.242 9.15527e-05 345.613 9.15527e-05 346.071V363.284C9.15527e-05 363.742 0.371399 364.114 0.829437 364.114Z" fill="#09005D"/>
<path d="M354.534 224.519H311.696C304.583 224.519 298.817 230.285 298.817 237.398V237.554C298.817 244.666 304.583 250.433 311.696 250.433H354.534C361.647 250.433 367.413 244.666 367.413 237.554V237.398C367.413 230.285 361.647 224.519 354.534 224.519Z" fill="#4F52FF"/>
<path d="M367.483 151.935C367.05 151.401 366.369 151.179 365.648 151.201L299.932 152.58L298.268 147.301C298.153 146.944 297.924 146.635 297.617 146.421C297.309 146.207 296.94 146.1 296.565 146.117L287.552 146.353C286.585 146.378 285.801 147.052 285.801 148.018C285.801 148.984 286.585 149.616 287.552 149.594L295.263 149.411L309.208 193.994C309.327 194.362 309.559 194.684 309.87 194.913C310.182 195.142 310.559 195.267 310.946 195.271L357.07 195.89C358.153 195.903 359.033 195.225 359.033 194.201C359.033 193.176 358.152 192.478 357.07 192.466L312.292 191.983L308.697 180.407L357.907 180.482C358.389 180.485 358.86 180.334 359.251 180.051C359.643 179.768 359.934 179.369 360.083 178.91L367.85 153.798C367.95 153.482 367.969 153.145 367.905 152.82C367.841 152.494 367.696 152.19 367.483 151.935Z" fill="#E9605A"/>
<path d="M317.695 198.014C313.899 197.955 310.83 200.908 310.83 204.598C310.83 208.289 313.899 211.37 317.695 211.469C321.511 211.569 324.636 208.617 324.636 204.886C324.636 201.155 321.513 198.078 317.695 198.014ZM317.695 207.88C315.92 207.839 314.482 206.401 314.482 204.675C314.486 204.26 314.573 203.851 314.737 203.471C314.902 203.091 315.141 202.748 315.441 202.461C315.74 202.175 316.094 201.951 316.481 201.804C316.868 201.656 317.281 201.588 317.695 201.602C319.474 201.635 320.924 203.07 320.924 204.808C320.921 205.224 320.834 205.636 320.669 206.018C320.503 206.4 320.263 206.744 319.962 207.032C319.66 207.319 319.304 207.542 318.915 207.689C318.526 207.836 318.111 207.903 317.695 207.886V207.88Z" fill="#E9605A"/>
<path d="M348.442 198.498C344.458 198.436 341.236 201.46 341.236 205.24C341.236 209.02 344.458 212.179 348.442 212.286C352.449 212.391 355.728 209.368 355.728 205.545C355.728 201.723 352.449 198.56 348.442 198.498ZM348.442 208.607C346.581 208.563 345.066 207.088 345.066 205.319C345.066 203.55 346.578 202.14 348.442 202.174C350.306 202.207 351.833 203.683 351.833 205.462C351.833 207.241 350.309 208.651 348.442 208.607Z" fill="#E9605A"/>
<path d="M148.693 45.0977C197.213 15.1256 238.635 15.3854 286.293 38.2693C287.804 38.9924 289.077 40.132 289.963 41.5541C290.849 42.9763 291.31 44.6217 291.292 46.297L291.27 48.2786C291.201 54.3364 285.163 58.5081 279.473 56.4266C238.263 41.3488 207.402 33.3813 157.452 60.3135C151.955 63.2786 145.209 59.6941 144.564 53.4807C144.395 51.8365 144.693 50.178 145.423 48.6954C146.153 47.2127 147.287 45.9658 148.693 45.0977Z" fill="#4F52FF"/>
<path d="M157.251 21.9231L131.307 61.674C131.125 61.9506 131.019 62.2696 130.998 62.5997C130.976 62.9299 131.042 63.2598 131.186 63.5572C131.331 63.8546 131.551 64.1092 131.824 64.2961C132.097 64.4829 132.414 64.5955 132.744 64.623L178.247 68.526C178.633 68.5585 179.021 68.4892 179.373 68.3251C179.724 68.161 180.026 67.9077 180.248 67.5905C180.471 67.2733 180.607 66.9033 180.642 66.5173C180.677 66.1314 180.611 65.7429 180.449 65.3906C169.581 51.4108 163.225 36.9759 160.583 22.1653C160.44 21.8555 160.217 21.5897 159.937 21.3955C159.656 21.2013 159.329 21.0858 158.989 21.0611C158.648 21.0363 158.308 21.1032 158.002 21.2549C157.697 21.4065 157.437 21.6372 157.251 21.9231Z" fill="#4F52FF"/>
<path d="M111.943 392.048C111.943 392.048 111.005 397.357 110.546 402.617C110.504 403.104 110.562 403.595 110.716 404.059C110.87 404.523 111.116 404.952 111.439 405.319C111.763 405.685 112.158 405.982 112.6 406.192C113.041 406.402 113.521 406.521 114.01 406.54C121.008 406.834 135.981 407.399 141.353 407.158C141.541 407.15 141.724 407.097 141.887 407.003C142.05 406.909 142.188 406.777 142.289 406.619C142.391 406.461 142.453 406.281 142.47 406.094C142.488 405.906 142.46 405.718 142.389 405.543C142.138 404.914 141.655 404.406 141.04 404.123L116.31 392.754L111.943 392.048Z" fill="url(#paint1_linear_2102_3213)"/>
<path d="M111.175 388.928L111.928 395.278C111.928 395.278 116.26 397.295 119.219 395.025L117.428 387.954L111.175 388.928Z" fill="url(#paint2_linear_2102_3213)"/>
<path d="M111.74 269.531C111.416 271.189 109.993 352.293 118.662 388.638C118.733 388.925 118.699 389.227 118.567 389.49C118.434 389.754 118.211 389.961 117.939 390.074C115.683 390.947 113.296 391.431 110.878 391.508C110.407 391.524 109.944 391.383 109.562 391.107C109.18 390.83 108.9 390.435 108.768 389.983C106.29 381.552 94.4149 339.301 92.8663 298.941C91.1357 253.842 92.8663 297.405 92.8663 297.405L93.8821 269.528L111.74 269.531Z" fill="url(#paint3_linear_2102_3213)"/>
<path d="M83.494 394.818C83.494 394.818 82.0012 397.498 80.5583 404.622C80.495 404.925 80.4962 405.238 80.562 405.54C80.6277 405.842 80.7565 406.128 80.9399 406.377C81.1232 406.626 81.3571 406.834 81.6262 406.987C81.8954 407.14 82.1937 407.234 82.5017 407.264C84.8122 407.491 88.3732 407.784 91.2208 407.764C91.531 407.764 91.8376 407.697 92.1204 407.57C92.4031 407.442 92.6558 407.256 92.8617 407.024C93.0677 406.792 93.2223 406.519 93.3154 406.224C93.4085 405.928 93.438 405.615 93.402 405.307C93.0864 402.706 92.103 398.442 89.0645 395.117L83.494 394.818Z" fill="url(#paint4_linear_2102_3213)"/>
<path d="M82.1836 386.65L83.945 396.254C83.945 396.254 85.6859 397.548 89.1295 396.61L88.2884 386.277L82.1836 386.65Z" fill="url(#paint5_linear_2102_3213)"/>
<path d="M77.4274 272.021C70.3362 314.812 78.9642 377.783 81.875 390.107C81.9607 390.476 82.1538 390.812 82.4299 391.071C82.706 391.331 83.0527 391.503 83.4265 391.566C84.7255 391.782 86.8642 391.958 88.9735 391.344C89.3278 391.241 89.6405 391.028 89.8675 390.737C90.0946 390.446 90.2244 390.091 90.2388 389.722C90.6292 379.759 89.9261 318.589 96.533 294.413C96.8675 293.189 97.616 292.118 98.6511 291.384L111.474 282.268L112.458 267.532L77.4274 272.021Z" fill="url(#paint6_linear_2102_3213)"/>
<path d="M119.219 192.465C119.219 192.465 86.6458 184.348 63.8662 196.412L77.4277 272.02C77.4277 272.02 99.0052 273.759 112.458 269.479L119.219 192.465Z" fill="#4F52FF"/>
<path d="M82.687 169.814L80.1917 191.269C80.1159 191.416 80.0935 191.583 80.1283 191.744C80.1632 191.905 80.2531 192.049 80.3825 192.15C82.0529 193.433 88.1768 197.339 96.8474 193.52C97.2942 193.326 97.6928 193.036 98.015 192.671C98.3372 192.305 98.575 191.874 98.7116 191.406L95.1887 172.811L82.687 169.814Z" fill="url(#paint7_linear_2102_3213)"/>
<path d="M102.681 158.629C102.681 158.629 105.854 174.132 103.346 179.278C100.837 184.425 92.1268 181.436 85.7137 174.769L84.5923 158.706L102.681 158.629Z" fill="url(#paint8_linear_2102_3213)"/>
<path d="M88.149 167.76C88.2316 167.749 88.311 167.721 88.3816 167.676C88.4522 167.632 88.5124 167.573 88.558 167.503C88.6036 167.433 88.6336 167.355 88.6458 167.272C88.6581 167.19 88.6523 167.106 88.629 167.026C88.3148 165.986 87.7688 163.893 87.8862 162.236C87.8862 162.236 86.847 161.038 91.7026 161.289C96.5583 161.54 103.827 161.847 106.381 158.404C108.877 155.045 108.022 144.499 99.9857 150.33C99.9148 150.383 99.8325 150.419 99.7453 150.436C99.6581 150.452 99.5684 150.447 99.4832 150.423C99.3979 150.399 99.3194 150.355 99.2538 150.295C99.1883 150.236 99.1373 150.162 99.105 150.079C98.5179 148.557 96.7697 145.244 92.8299 145.781C89.1442 146.282 88.0756 148.56 87.7659 149.775C87.7448 149.859 87.7052 149.937 87.6499 150.003C87.5946 150.07 87.5251 150.123 87.4466 150.158C87.368 150.194 87.2824 150.211 87.1961 150.209C87.1098 150.207 87.0251 150.186 86.9483 150.147C85.3953 149.348 81.5172 147.914 78.4875 151.424C75.9922 154.314 76.4164 156.495 77.0432 157.684C77.0898 157.772 77.113 157.87 77.1105 157.968C77.1081 158.067 77.0801 158.164 77.0293 158.249C76.9785 158.334 76.9065 158.404 76.8205 158.453C76.7345 158.502 76.6372 158.528 76.5382 158.528C75.3639 158.542 73.6906 159.048 73.0844 161.623C72.2448 165.184 76.2535 166.026 77.416 166.198C77.5096 166.212 77.5986 166.248 77.6753 166.303C77.7519 166.359 77.8141 166.432 77.8564 166.516C78.5008 167.857 81.4864 173.619 85.9897 175.535C86.0801 175.57 86.1779 175.583 86.2743 175.571C86.3706 175.56 86.4627 175.524 86.5421 175.469C86.6215 175.413 86.6858 175.338 86.7293 175.251C86.7728 175.164 86.794 175.068 86.7912 174.971L86.4976 168.513C86.4909 168.368 86.5387 168.226 86.6317 168.115C86.7246 168.003 86.856 167.931 86.9996 167.912L88.149 167.76Z" fill="url(#paint9_linear_2102_3213)"/>
<path d="M88.7151 168.832C88.7151 168.832 84.6683 163.859 83.4309 166.68C82.1935 169.501 86.7467 172.268 89.5136 171.897L88.7151 168.832Z" fill="url(#paint10_linear_2102_3213)"/>
<path d="M136.216 207.322C136.216 207.322 148.502 213.033 162.871 197.781C172.691 187.359 178.699 193.75 180.597 197.955C182.495 202.161 177.955 201.812 176.37 201.812C174.784 201.812 174.589 197.235 171.797 197.859C169.005 198.482 169.826 197.647 169.65 200.451C169.474 203.254 154.459 234.916 135.889 219.495L136.216 207.322Z" fill="url(#paint11_linear_2102_3213)"/>
<path d="M192.368 209.379L159.899 207.333C158.473 207.243 157.065 207.699 155.963 208.609C154.861 209.519 154.146 210.814 153.963 212.231L146.693 268.698C146.59 269.491 146.658 270.297 146.892 271.062C147.125 271.826 147.519 272.532 148.047 273.133C148.574 273.734 149.224 274.215 149.952 274.544C150.681 274.874 151.471 275.045 152.271 275.045H194.637C195.399 275.045 196.153 274.89 196.854 274.59C197.554 274.29 198.186 273.851 198.712 273.299C199.237 272.748 199.645 272.095 199.911 271.381C200.177 270.667 200.296 269.907 200.259 269.146L197.632 214.725C197.565 213.343 196.992 212.033 196.021 211.047C195.05 210.061 193.749 209.467 192.368 209.379Z" fill="#E9605A"/>
<path d="M187.58 215.118C187.851 215.118 188.112 215.013 188.307 214.825C188.503 214.637 188.618 214.381 188.63 214.11C188.66 213.385 189.231 196.33 177.229 194.452C174.66 194.053 172.385 194.655 170.456 196.247C164.611 201.077 164.118 213.504 164.1 214.031C164.095 214.168 164.118 214.306 164.166 214.435C164.214 214.564 164.287 214.683 164.382 214.784C164.476 214.884 164.589 214.966 164.714 215.023C164.84 215.08 164.975 215.112 165.113 215.117C165.391 215.124 165.661 215.021 165.864 214.832C166.067 214.642 166.188 214.38 166.201 214.102C166.201 213.984 166.681 202.091 171.798 197.867C173.258 196.658 174.93 196.224 176.904 196.531C187.074 198.119 186.536 213.863 186.529 214.022C186.518 214.3 186.617 214.572 186.806 214.778C186.995 214.983 187.257 215.105 187.536 215.117L187.58 215.118Z" fill="#E9605A"/>
<path d="M119.218 192.465L139.034 207.321C139.034 207.321 139.385 218.452 136.756 223.716L114.678 218.285L119.218 192.465Z" fill="#4F52FF"/>
<path d="M57.9081 237.915C57.9081 237.915 60.129 266.308 78.8235 267.532C78.8235 267.532 86.8351 266.798 90.3124 269.528C93.7898 272.258 92.1047 276.467 92.1047 276.467L77.0254 274.627C77.0254 274.627 55.4553 278.218 42.4883 242.122L57.9081 237.915Z" fill="url(#paint12_linear_2102_3213)"/>
<path d="M63.8663 196.413C63.8663 196.413 38.283 211.631 42.4884 242.122C42.4884 242.122 51.6273 246.085 58.2723 240.773C58.2723 240.773 63.4509 220.957 74.6976 219.976L63.8663 196.413Z" fill="#4F52FF"/>
<path d="M211.536 146.485C225.555 132.466 225.555 109.738 211.536 95.7197C197.518 81.7013 174.79 81.7013 160.771 95.7197C146.753 109.738 146.753 132.466 160.771 146.485C174.79 160.503 197.518 160.503 211.536 146.485Z" fill="#4F52FF"/>
<path d="M210.693 145.641C224.245 132.089 224.245 110.116 210.693 96.5636C197.14 83.0112 175.168 83.0112 161.615 96.5636C148.063 110.116 148.063 132.089 161.615 145.641C175.168 159.193 197.14 159.193 210.693 145.641Z" fill="#4F52FF"/>
<path d="M157.539 107.463C157.407 107.463 157.277 107.429 157.162 107.364C157.046 107.3 156.949 107.207 156.88 107.094C156.811 106.982 156.772 106.853 156.766 106.721C156.76 106.589 156.788 106.458 156.848 106.34C159.57 100.903 163.755 96.3336 168.933 93.1458C174.11 89.958 180.075 88.2783 186.155 88.2955C188.139 88.2952 190.119 88.4735 192.072 88.8284C192.175 88.8428 192.275 88.8779 192.364 88.9318C192.454 88.9856 192.532 89.057 192.593 89.1417C192.654 89.2264 192.698 89.3226 192.721 89.4245C192.744 89.5265 192.746 89.632 192.728 89.7349C192.709 89.8377 192.669 89.9357 192.612 90.0229C192.554 90.1101 192.48 90.1848 192.393 90.2425C192.305 90.3001 192.207 90.3396 192.105 90.3584C192.002 90.3772 191.896 90.375 191.794 90.352C189.934 90.0136 188.046 89.8436 186.155 89.8441C180.362 89.8283 174.68 91.4292 169.748 94.4665C164.815 97.5039 160.828 101.857 158.235 107.037C158.17 107.166 158.07 107.274 157.948 107.349C157.825 107.424 157.683 107.464 157.539 107.463Z" fill="white"/>
<path d="M207.679 142.628C219.149 131.158 219.149 112.561 207.679 101.091C196.209 89.6201 177.611 89.6201 166.141 101.091C154.671 112.561 154.671 131.158 166.141 142.628C177.611 154.099 196.209 154.099 207.679 142.628Z" fill="white"/>
<path d="M184.027 143.695V140.499C180.697 140.366 177.402 139.579 175.062 138.555C174.658 138.374 174.331 138.055 174.143 137.654C173.954 137.253 173.916 136.798 174.034 136.372L174.846 133.395C174.916 133.138 175.041 132.9 175.211 132.696C175.382 132.491 175.594 132.326 175.833 132.21C176.073 132.095 176.335 132.032 176.601 132.026C176.867 132.02 177.131 132.072 177.375 132.177C179.696 133.15 182.563 133.919 185.654 133.919C188.863 133.919 191.255 132.831 191.255 130.602C191.255 128.589 189.406 127.393 184.943 126.198C178.582 124.459 174.012 121.684 174.012 116.083C174.012 111.026 177.711 107.164 184.127 106.131V102.934C184.128 102.44 184.324 101.967 184.673 101.618C185.023 101.269 185.496 101.073 185.99 101.073H187.867C188.112 101.073 188.354 101.121 188.58 101.215C188.805 101.308 189.011 101.445 189.183 101.618C189.356 101.791 189.493 101.996 189.587 102.222C189.681 102.448 189.729 102.69 189.729 102.934V105.804C192.811 105.927 195.055 106.454 196.836 107.079C197.275 107.238 197.639 107.556 197.853 107.971C198.068 108.386 198.118 108.866 197.994 109.316L197.247 112.069C197.18 112.319 197.061 112.553 196.898 112.755C196.734 112.956 196.531 113.122 196.3 113.24C196.069 113.358 195.816 113.427 195.557 113.441C195.298 113.456 195.038 113.416 194.796 113.324C192.57 112.477 190.207 112.048 187.826 112.058C184.019 112.058 182.931 113.635 182.931 115.048C182.931 116.789 185.215 117.984 190.165 119.508C197.234 121.629 200.171 124.566 200.171 129.84C200.171 134.684 196.581 139.03 189.62 140.115V143.691C189.62 144.184 189.424 144.658 189.075 145.007C188.726 145.356 188.252 145.552 187.759 145.552H185.881C185.39 145.549 184.919 145.353 184.572 145.005C184.225 144.657 184.029 144.186 184.027 143.695Z" fill="#4F52FF"/>
<path d="M263.242 174.241C271.987 165.496 271.987 151.317 263.242 142.572C254.497 133.827 240.318 133.827 231.573 142.572C222.828 151.317 222.828 165.496 231.573 174.241C240.318 182.987 254.497 182.987 263.242 174.241Z" fill="#4F52FF"/>
<path d="M262.716 173.715C271.171 165.261 271.171 151.553 262.716 143.098C254.262 134.644 240.554 134.644 232.099 143.098C223.645 151.553 223.645 165.261 232.099 173.715C240.554 182.17 254.262 182.17 262.716 173.715Z" fill="#4F52FF"/>
<path d="M229.556 150.253C229.425 150.253 229.295 150.223 229.178 150.163C228.979 150.063 228.828 149.887 228.758 149.675C228.689 149.463 228.706 149.232 228.806 149.033C230.535 145.583 233.191 142.683 236.478 140.661C239.764 138.638 243.55 137.572 247.408 137.584C248.668 137.584 249.925 137.697 251.165 137.922C251.379 137.966 251.568 138.092 251.692 138.273C251.815 138.454 251.862 138.677 251.824 138.892C251.786 139.108 251.665 139.301 251.487 139.428C251.309 139.556 251.088 139.61 250.871 139.577C246.802 138.836 242.602 139.431 238.898 141.273C235.195 143.115 232.186 146.105 230.321 149.797C230.249 149.936 230.139 150.053 230.004 150.134C229.869 150.215 229.714 150.256 229.556 150.253Z" fill="white"/>
<path d="M260.837 171.834C267.993 164.678 267.993 153.077 260.837 145.921C253.682 138.766 242.08 138.766 234.924 145.921C227.769 153.077 227.769 164.678 234.924 171.834C242.08 178.99 253.682 178.99 260.837 171.834Z" fill="white"/>
<path d="M246.083 172.5V170.507C244.004 170.423 241.949 169.933 240.489 169.295C240.237 169.181 240.035 168.981 239.918 168.731C239.801 168.482 239.777 168.198 239.852 167.932L240.358 166.074C240.402 165.914 240.48 165.765 240.586 165.638C240.692 165.511 240.825 165.407 240.974 165.335C241.124 165.263 241.287 165.224 241.453 165.22C241.619 165.217 241.783 165.248 241.936 165.314C243.569 166.013 245.324 166.383 247.1 166.401C249.102 166.401 250.595 165.723 250.595 164.332C250.595 163.077 249.441 162.331 246.66 161.584C242.696 160.498 239.84 158.769 239.84 155.272C239.84 152.116 242.147 149.707 246.152 149.063V147.07C246.152 146.762 246.274 146.467 246.492 146.249C246.709 146.031 247.005 145.909 247.313 145.909H248.487C248.795 145.909 249.091 146.031 249.309 146.249C249.527 146.466 249.649 146.762 249.65 147.07V148.861C251.159 148.898 252.654 149.166 254.082 149.656C254.357 149.755 254.584 149.953 254.718 150.212C254.851 150.471 254.883 150.771 254.805 151.052L254.339 152.769C254.297 152.926 254.223 153.071 254.121 153.197C254.019 153.323 253.892 153.426 253.748 153.499C253.604 153.573 253.446 153.615 253.284 153.624C253.123 153.633 252.961 153.608 252.81 153.55C251.421 153.023 249.947 152.756 248.462 152.762C246.087 152.762 245.409 153.746 245.409 154.628C245.409 155.712 246.833 156.46 249.921 157.417C254.325 158.738 256.162 160.573 256.162 163.863C256.162 166.883 253.924 169.597 249.581 170.275V172.506C249.581 172.814 249.458 173.109 249.24 173.327C249.023 173.545 248.727 173.667 248.419 173.667H247.245C247.092 173.667 246.94 173.637 246.799 173.579C246.658 173.52 246.529 173.434 246.421 173.326C246.313 173.217 246.228 173.088 246.169 172.947C246.111 172.805 246.082 172.653 246.083 172.5Z" fill="#4F52FF"/>
<path d="M217.013 197.492C224.427 190.078 224.427 178.057 217.013 170.643C209.598 163.229 197.578 163.229 190.163 170.643C182.749 178.057 182.749 190.078 190.163 197.492C197.578 204.906 209.598 204.906 217.013 197.492Z" fill="#4F52FF"/>
<path d="M216.567 197.046C223.734 189.878 223.734 178.257 216.567 171.089C209.399 163.921 197.778 163.921 190.61 171.089C183.442 178.257 183.442 189.878 190.61 197.046C197.778 204.213 209.399 204.213 216.567 197.046Z" fill="#4F52FF"/>
<path d="M188.453 177.157C188.331 177.156 188.211 177.125 188.105 177.066C187.999 177.006 187.91 176.92 187.846 176.817C187.783 176.713 187.746 176.595 187.741 176.473C187.736 176.351 187.762 176.23 187.817 176.122C189.282 173.196 191.535 170.737 194.322 169.021C197.108 167.306 200.318 166.402 203.591 166.412C204.659 166.414 205.724 166.513 206.775 166.706C206.869 166.72 206.959 166.754 207.04 166.804C207.121 166.854 207.191 166.92 207.246 166.997C207.301 167.075 207.34 167.163 207.361 167.255C207.381 167.348 207.383 167.444 207.366 167.538C207.349 167.632 207.313 167.721 207.261 167.801C207.209 167.88 207.142 167.949 207.063 168.002C206.984 168.055 206.895 168.092 206.802 168.11C206.708 168.129 206.612 168.128 206.519 168.109C205.551 167.933 204.568 167.845 203.583 167.846C200.576 167.837 197.625 168.668 195.064 170.245C192.502 171.822 190.432 174.082 189.085 176.772C189.025 176.888 188.935 176.985 188.823 177.053C188.711 177.121 188.583 177.157 188.453 177.157Z" fill="white"/>
<path d="M214.973 195.453C221.039 189.386 221.039 179.55 214.973 173.484C208.906 167.417 199.07 167.417 193.004 173.484C186.937 179.55 186.937 189.386 193.004 195.453C199.07 201.519 208.906 201.519 214.973 195.453Z" fill="white"/>
<path d="M202.464 196.015V194.325C200.702 194.255 198.959 193.84 197.721 193.298C197.508 193.202 197.336 193.032 197.237 192.82C197.138 192.608 197.118 192.368 197.181 192.143L197.611 190.568C197.648 190.432 197.714 190.306 197.804 190.198C197.894 190.09 198.006 190.003 198.133 189.941C198.26 189.88 198.398 189.847 198.539 189.844C198.679 189.841 198.819 189.868 198.948 189.923C200.333 190.516 201.821 190.829 203.327 190.845C205.024 190.845 206.289 190.27 206.289 189.084C206.289 188.019 205.311 187.387 202.953 186.754C199.588 185.834 197.171 184.366 197.171 181.404C197.171 178.729 199.127 176.686 202.521 176.14V174.451C202.521 174.321 202.546 174.193 202.596 174.073C202.645 173.954 202.718 173.845 202.809 173.754C202.901 173.662 203.009 173.59 203.129 173.54C203.248 173.491 203.377 173.466 203.506 173.466H204.5C204.629 173.466 204.757 173.491 204.876 173.541C204.996 173.59 205.104 173.663 205.196 173.754C205.287 173.846 205.359 173.954 205.409 174.074C205.458 174.193 205.483 174.321 205.483 174.451V175.968C206.763 176 208.031 176.227 209.242 176.642C209.475 176.726 209.667 176.894 209.78 177.114C209.894 177.333 209.92 177.587 209.854 177.825L209.46 179.281C209.424 179.414 209.361 179.538 209.275 179.644C209.189 179.751 209.081 179.839 208.959 179.901C208.837 179.964 208.703 180 208.566 180.007C208.429 180.015 208.292 179.994 208.163 179.945C206.986 179.498 205.737 179.271 204.478 179.275C202.464 179.275 201.888 180.109 201.888 180.858C201.888 181.778 203.096 182.411 205.714 183.215C209.452 184.338 211.007 185.891 211.007 188.68C211.007 191.24 209.107 193.542 205.429 194.111V196.002C205.429 196.131 205.404 196.259 205.354 196.379C205.305 196.498 205.232 196.607 205.141 196.699C205.049 196.79 204.941 196.863 204.821 196.912C204.701 196.961 204.573 196.987 204.444 196.987H203.444C203.186 196.986 202.938 196.883 202.755 196.702C202.571 196.52 202.467 196.273 202.464 196.015Z" fill="#4F52FF"/>
<path d="M276.941 112.246C288.42 100.767 288.42 82.1571 276.941 70.6787C265.463 59.2002 246.853 59.2002 235.374 70.6787C223.896 82.1571 223.896 100.767 235.374 112.246C246.853 123.724 265.463 123.724 276.941 112.246Z" fill="#4F52FF"/>
<path d="M276.25 111.554C287.347 100.458 287.347 82.4666 276.25 71.3699C265.153 60.2733 247.162 60.2733 236.065 71.3699C224.969 82.4666 224.969 100.458 236.065 111.554C247.162 122.651 265.153 122.651 276.25 111.554Z" fill="#4F52FF"/>
<path d="M232.728 80.4993C232.585 80.4992 232.444 80.4623 232.318 80.3922C232.193 80.3221 232.088 80.2211 232.013 80.0988C231.938 79.9766 231.895 79.8371 231.889 79.6937C231.883 79.5503 231.914 79.4077 231.978 79.2795C234.224 74.7936 237.677 71.0233 241.949 68.393C246.221 65.7627 251.142 64.3768 256.158 64.3911C257.796 64.3915 259.43 64.5388 261.042 64.8315C261.153 64.849 261.259 64.8885 261.354 64.9476C261.449 65.0068 261.532 65.0844 261.597 65.1759C261.661 65.2674 261.707 65.3709 261.732 65.4804C261.756 65.5899 261.758 65.7031 261.738 65.8134C261.718 65.9238 261.676 66.0289 261.614 66.1228C261.553 66.2166 261.473 66.2972 261.38 66.3599C261.287 66.4225 261.183 66.4659 261.073 66.4875C260.962 66.5091 260.849 66.5085 260.739 66.4857C259.228 66.2117 257.695 66.0741 256.158 66.0747C251.453 66.0615 246.838 67.3615 242.831 69.8284C238.825 72.2953 235.586 75.8312 233.48 80.0384C233.41 80.1773 233.302 80.2939 233.169 80.3752C233.037 80.4566 232.884 80.4996 232.728 80.4993Z" fill="white"/>
<path d="M273.784 109.087C283.176 99.6949 283.176 84.4677 273.784 75.0759C264.392 65.684 249.165 65.684 239.773 75.0759C230.381 84.4677 230.381 99.6949 239.773 109.087C249.165 118.479 264.392 118.479 273.784 109.087Z" fill="white"/>
<path d="M254.417 109.959V107.341C251.69 107.233 248.986 106.588 247.078 105.75C246.748 105.602 246.482 105.34 246.328 105.012C246.175 104.684 246.144 104.311 246.241 103.962L246.906 101.526C246.964 101.316 247.066 101.121 247.206 100.953C247.345 100.786 247.519 100.65 247.715 100.555C247.911 100.461 248.125 100.409 248.343 100.404C248.561 100.399 248.777 100.441 248.978 100.526C251.121 101.444 253.425 101.929 255.756 101.954C258.382 101.954 260.342 101.063 260.342 99.2375C260.342 97.5905 258.828 96.6115 255.176 95.6309C249.967 94.2071 246.222 91.9349 246.222 87.3493C246.222 83.2085 249.251 80.0467 254.504 79.2012V76.5841C254.504 76.1796 254.665 75.7917 254.951 75.5057C255.237 75.2196 255.625 75.059 256.029 75.059H257.566C257.97 75.059 258.358 75.2196 258.644 75.5057C258.93 75.7917 259.091 76.1796 259.091 76.5841V78.9326C261.614 79.0339 263.452 79.4655 264.91 79.9777C265.269 80.1074 265.567 80.3682 265.743 80.7078C265.919 81.0475 265.96 81.441 265.858 81.8096L265.246 84.0642C265.191 84.2695 265.093 84.4609 264.96 84.6261C264.826 84.7914 264.66 84.9268 264.471 85.0236C264.282 85.1204 264.074 85.1765 263.862 85.1883C263.65 85.2 263.438 85.1671 263.239 85.0917C261.417 84.3984 259.482 84.0471 257.532 84.0554C254.414 84.0554 253.525 85.3472 253.525 86.5038C253.525 87.9291 255.395 88.9096 259.446 90.1558C265.236 91.8923 267.64 94.2967 267.64 98.6166C267.64 102.58 264.704 106.141 259.002 107.032V109.967C259.001 110.372 258.84 110.759 258.554 111.045C258.268 111.331 257.881 111.491 257.476 111.491H255.94C255.739 111.491 255.54 111.451 255.355 111.373C255.17 111.296 255.002 111.183 254.86 111.041C254.719 110.898 254.607 110.73 254.531 110.544C254.455 110.358 254.416 110.159 254.417 109.959Z" fill="#4F52FF"/>
<path d="M295.23 282.222C252.869 320.41 212.073 327.579 161.084 313.615C159.468 313.174 158.011 312.281 156.885 311.04C155.759 309.8 155.01 308.265 154.725 306.614L154.392 304.66C153.373 298.689 158.567 293.504 164.538 294.532C207.782 301.977 239.581 304.281 283.883 268.827C288.76 264.925 296.04 267.243 297.787 273.239C298.248 274.825 298.253 276.509 297.8 278.098C297.348 279.687 296.457 281.116 295.23 282.222Z" fill="#4F52FF"/>
<path d="M290.962 306.558L309.358 262.799C309.487 262.495 309.535 262.162 309.496 261.833C309.457 261.505 309.334 261.192 309.138 260.926C308.942 260.659 308.68 260.448 308.378 260.314C308.076 260.179 307.744 260.125 307.415 260.157L261.953 264.477C261.567 264.514 261.197 264.651 260.88 264.875C260.564 265.099 260.312 265.403 260.149 265.755C259.987 266.107 259.92 266.495 259.954 266.882C259.989 267.268 260.124 267.638 260.347 267.956C273.546 279.762 282.39 292.821 287.649 306.916C287.845 307.193 288.112 307.412 288.422 307.552C288.732 307.691 289.073 307.746 289.41 307.709C289.748 307.673 290.07 307.547 290.343 307.344C290.615 307.142 290.829 306.87 290.962 306.558Z" fill="#4F52FF"/>
<path d="M323.608 241.169L322.097 239.002C322 239.011 321.902 239.014 321.804 239.013H320.139V241.169H318.765V233.771H321.808C322.382 233.758 322.953 233.866 323.483 234.088C323.93 234.276 324.311 234.592 324.578 234.997C324.838 235.418 324.971 235.907 324.958 236.403C324.971 236.912 324.829 237.413 324.551 237.84C324.264 238.255 323.853 238.569 323.377 238.738L325.078 241.169H323.608ZM323.111 235.314C322.8 235.06 322.347 234.933 321.748 234.933H320.139V237.882H321.754C322.353 237.882 322.806 237.753 323.117 237.496C323.274 237.362 323.397 237.193 323.478 237.004C323.558 236.814 323.594 236.609 323.583 236.403C323.594 236.198 323.557 235.994 323.475 235.806C323.393 235.618 323.269 235.451 323.111 235.32V235.314Z" fill="white"/>
<path d="M332.042 240.023V241.169H326.493V233.771H331.893V234.924H327.867V236.846H331.441V237.978H327.87V240.017L332.042 240.023Z" fill="white"/>
<path d="M340.147 233.777V241.169H339.017L334.936 236.159V241.169H333.574V233.771H334.704L338.784 238.781V233.771L340.147 233.777Z" fill="white"/>
<path d="M343.635 234.939H341.184V233.777H347.46V234.939H345.009V241.169H343.635V234.939Z" fill="white"/>
<defs>
<linearGradient id="paint0_linear_2102_3213" x1="435.876" y1="464.436" x2="133.852" y2="138.441" gradientUnits="userSpaceOnUse">
<stop stop-color="#DAE3FE"/>
<stop offset="1" stop-color="#E9EFFD"/>
</linearGradient>
<linearGradient id="paint1_linear_2102_3213" x1="140.571" y1="384.71" x2="50.0082" y2="483.215" gradientUnits="userSpaceOnUse">
<stop stop-color="#09005D"/>
<stop offset="1" stop-color="#1A0F91"/>
</linearGradient>
<linearGradient id="paint2_linear_2102_3213" x1="111.175" y1="392.026" x2="119.219" y2="392.026" gradientUnits="userSpaceOnUse">
<stop stop-color="#FEBBBA"/>
<stop offset="1" stop-color="#FF928E"/>
</linearGradient>
<linearGradient id="paint3_linear_2102_3213" x1="24259.3" y1="206871" x2="80042.9" y2="170585" gradientUnits="userSpaceOnUse">
<stop stop-color="#09005D"/>
<stop offset="1" stop-color="#1A0F91"/>
</linearGradient>
<linearGradient id="paint4_linear_2102_3213" x1="-38818.2" y1="32681.1" x2="-46808.3" y2="41343.9" gradientUnits="userSpaceOnUse">
<stop stop-color="#09005D"/>
<stop offset="1" stop-color="#1A0F91"/>
</linearGradient>
<linearGradient id="paint5_linear_2102_3213" x1="-22655.5" y1="28865.5" x2="-22326.8" y2="28865.5" gradientUnits="userSpaceOnUse">
<stop stop-color="#FEBBBA"/>
<stop offset="1" stop-color="#FF928E"/>
</linearGradient>
<linearGradient id="paint6_linear_2102_3213" x1="29314.1" y1="205096" x2="91164.9" y2="149023" gradientUnits="userSpaceOnUse">
<stop stop-color="#09005D"/>
<stop offset="1" stop-color="#1A0F91"/>
</linearGradient>
<linearGradient id="paint7_linear_2102_3213" x1="-72169.7" y1="30358.5" x2="-69779.4" y2="30720" gradientUnits="userSpaceOnUse">
<stop stop-color="#FEBBBA"/>
<stop offset="1" stop-color="#FF928E"/>
</linearGradient>
<linearGradient id="paint8_linear_2102_3213" x1="-188318" y1="4714.83" x2="-191238" y2="1796.46" gradientUnits="userSpaceOnUse">
<stop stop-color="#FEBBBA"/>
<stop offset="1" stop-color="#FF928E"/>
</linearGradient>
<linearGradient id="paint9_linear_2102_3213" x1="-321863" y1="33776.3" x2="-317622" y2="40081.4" gradientUnits="userSpaceOnUse">
<stop stop-color="#09005D"/>
<stop offset="1" stop-color="#1A0F91"/>
</linearGradient>
<linearGradient id="paint10_linear_2102_3213" x1="-57433.7" y1="5675.65" x2="-58096.6" y2="4933.31" gradientUnits="userSpaceOnUse">
<stop stop-color="#FEBBBA"/>
<stop offset="1" stop-color="#FF928E"/>
</linearGradient>
<linearGradient id="paint11_linear_2102_3213" x1="-45004.2" y1="47568.3" x2="-45137.4" y2="39635.4" gradientUnits="userSpaceOnUse">
<stop stop-color="#FEBBBA"/>
<stop offset="1" stop-color="#FF928E"/>
</linearGradient>
<linearGradient id="paint12_linear_2102_3213" x1="-80740.3" y1="71929.9" x2="-80968.8" y2="59608.9" gradientUnits="userSpaceOnUse">
<stop stop-color="#FEBBBA"/>
<stop offset="1" stop-color="#FF928E"/>
</linearGradient>
</defs>
</svg>
